<svg version="1.1" viewBox="0.0 0.0 600.0 371.0" fill="none" stroke="none" stroke-linecap="square" stroke-miterlimit="10" width="600" height="371" xmlns:xlink="http://www.w3.org/1999/xlink" xmlns="http://www.w3.org/2000/svg"><path fill="#5fffff" d="M0 0L600.0 0L600.0 371.0L0 371.0L0 0Z" fill-rule="nonzero"/><path fill="#ea4335" d="M139.50525 79.355095C162.12924 65.975296 187.93126 58.916668 214.21556 58.916668L214.21556 205.68333Z" fill-rule="nonzero"/><path fill="#4285f4" d="M214.21556 58.916668C287.72147 58.916668 349.89075 113.293884 359.67596 186.14555C369.46115 258.99722 323.844 327.852 252.94333 347.2482C182.04266 366.64444 107.72812 330.5993 79.06613 262.9117C50.40415 195.22415 76.23563 116.772644 139.50525 79.355095L214.21556 205.68333Z" fill-rule="nonzero"/><path fill="#000000" d="M222.9802 308.9955Q222.30832 309.57364 221.74582 309.82364Q221.18332 310.058 220.55832 310.058Q219.1052 310.058 218.01144 308.90176Q216.93332 307.7455 216.93332 306.02676Q216.93332 304.683 217.68332 303.57364Q218.69894 302.07364 220.55832 302.07364Q221.88644 302.07364 222.87082 302.8705Q223.87082 303.65176 224.32394 305.15176Q224.7927 306.65176 224.7927 308.27676Q224.7927 311.0424 222.6677 312.71426Q221.01144 313.9955 219.0427 313.9955Q217.94894 313.9955 217.3552 313.558Q216.94894 313.26114 216.94894 312.7924Q216.94894 312.40176 217.19894 312.15176Q217.46457 311.88614 217.83957 311.88614Q218.05832 311.88614 218.32394 312.01114Q218.6677 312.19864 219.0427 312.19864Q220.40207 312.19864 221.55832 311.27676Q222.71457 310.33926 222.9802 308.9955ZM222.7302 306.1674Q222.43332 304.9174 221.87082 304.40176Q221.30832 303.8705 220.57394 303.8705Q219.80832 303.8705 219.26144 304.46426Q218.7302 305.0424 218.7302 306.01114Q218.7302 307.01114 219.26144 307.63614Q219.80832 308.26114 220.51144 308.26114Q221.7302 308.26114 222.7302 306.1674ZM232.3552 302.07364L232.3552 311.933L234.18332 311.933Q234.83957 311.933 235.1052 312.183Q235.38644 312.433 235.38644 312.83926Q235.38644 313.2299 235.1052 313.4799Q234.83957 313.7299 234.18332 313.7299L228.74582 313.7299Q228.08957 313.7299 227.80832 313.4799Q227.5427 313.2299 227.5427 312.82364Q227.5427 312.433 227.80832 312.183Q228.08957 311.933 228.74582 311.933L230.55832 311.933L230.55832 304.4174L228.94894 304.83926Q228.55832 304.933 228.37082 304.933Q228.02707 304.933 227.77707 304.6674Q227.52707 304.40176 227.52707 303.9955Q227.52707 303.63614 227.71457 303.433Q227.90207 303.2299 228.4802 303.07364L232.3552 302.07364ZM243.82394 312.82364Q243.82394 313.33926 243.46457 313.683Q243.1052 314.02676 242.46457 314.02676Q241.83957 314.02676 241.46457 313.683Q241.1052 313.33926 241.1052 312.82364Q241.1052 312.308 241.46457 311.9799Q241.83957 311.63614 242.46457 311.63614Q243.1052 311.63614 243.46457 311.9799Q243.82394 312.308 243.82394 312.82364ZM251.93332 304.15176L251.93332 306.308Q252.93332 305.9799 253.74582 305.9799Q255.40207 305.9799 256.49582 307.1205Q257.6052 308.26114 257.6052 310.0424Q257.6052 311.88614 256.49582 312.94864Q255.38644 313.9955 253.08957 313.9955Q251.07394 313.9955 249.88644 313.2299Q249.19894 312.7924 249.19894 312.21426Q249.19894 311.8549 249.46457 311.58926Q249.74582 311.32364 250.1052 311.32364Q250.4177 311.32364 250.77707 311.6205Q251.13644 311.9174 251.52707 312.02676Q252.08957 312.19864 252.9802 312.19864Q254.6052 312.19864 255.19894 311.683Q255.80832 311.15176 255.80832 310.058Q255.80832 308.9955 255.2302 308.40176Q254.65207 307.7924 253.74582 307.7924Q252.77707 307.7924 251.52707 308.4174Q251.24582 308.57364 251.02707 308.57364Q250.65207 308.57364 250.38644 308.2924Q250.12082 308.01114 250.12082 307.558L250.12082 302.3549L255.63644 302.3549Q256.2927 302.3549 256.55832 302.6049Q256.83957 302.8549 256.83957 303.26114Q256.83957 303.65176 256.55832 303.90176Q256.2927 304.15176 255.63644 304.15176L251.93332 304.15176ZM265.82394 304.9799Q265.82394 306.0424 265.07394 306.7924Q264.33957 307.52676 263.2927 307.52676Q262.2302 307.52676 261.4802 306.7924Q260.74582 306.0424 260.74582 304.9799Q260.74582 303.933 261.4802 303.183Q262.2302 302.433 263.2927 302.433Q264.33957 302.433 265.07394 303.183Q265.82394 303.9174 265.82394 304.9799ZM264.71457 304.9799Q264.71457 304.38614 264.2927 303.9799Q263.87082 303.558 263.2927 303.558Q262.68332 303.558 262.26144 303.9799Q261.8552 304.38614 261.8552 304.9799Q261.8552 305.57364 262.27707 305.9955Q262.69894 306.4174 263.2927 306.4174Q263.87082 306.4174 264.2927 305.9955Q264.71457 305.57364 264.71457 304.9799ZM267.94894 307.6674L261.30832 309.82364Q261.05832 309.90176 260.94894 309.90176Q260.74582 309.90176 260.58957 309.7299Q260.43332 309.558 260.43332 309.308Q260.43332 309.1205 260.55832 308.9799Q260.63644 308.8549 260.96457 308.76114L267.6052 306.6049Q267.8552 306.52676 267.9802 306.52676Q268.18332 306.52676 268.33957 306.69864Q268.49582 306.8705 268.49582 307.1049Q268.49582 307.2924 268.37082 307.44864Q268.27707 307.558 267.94894 307.6674ZM268.12082 311.44864Q268.12082 312.51114 267.37082 313.26114Q266.62082 313.9955 265.55832 313.9955Q264.51144 313.9955 263.76144 313.2455Q263.01144 312.4955 263.01144 311.44864Q263.01144 310.40176 263.76144 309.65176Q264.51144 308.90176 265.55832 308.90176Q266.62082 308.90176 267.37082 309.65176Q268.12082 310.38614 268.12082 311.44864ZM266.99582 311.44864Q266.99582 310.8549 266.57394 310.44864Q266.15207 310.02676 265.55832 310.02676Q264.9802 310.02676 264.55832 310.44864Q264.13644 310.8549 264.13644 311.44864Q264.13644 312.0424 264.55832 312.46426Q264.9802 312.8705 265.55832 312.8705Q266.15207 312.8705 266.57394 312.46426Q266.99582 312.0424 266.99582 311.44864Z" fill-rule="nonzero"/><path fill="#000000" d="M171.15208 98.36652Q171.85521 98.89777 172.19896 99.58527Q172.54271 100.25715 172.54271 101.06965Q172.54271 101.9759 172.08958 102.74152Q171.65208 103.50715 170.69896 103.94465Q169.76146 104.38215 168.58958 104.38215Q167.43333 104.38215 166.49583 103.94465Q165.57396 103.50715 165.12083 102.74152Q164.68333 101.9759 164.68333 101.06965Q164.68333 100.25715 165.02708 99.58527Q165.38646 98.89777 166.07396 98.36652Q165.46458 97.80402 165.15208 97.17902Q164.85521 96.5384 164.85521 95.83527Q164.85521 94.44465 165.90208 93.46027Q166.96458 92.46027 168.62083 92.46027Q170.26146 92.46027 171.30833 93.46027Q172.37083 94.44465 172.37083 95.83527Q172.37083 96.5384 172.05833 97.17902Q171.76146 97.80402 171.15208 98.36652ZM170.52708 95.86652Q170.52708 95.19465 169.99583 94.7259Q169.48021 94.25715 168.58958 94.25715Q167.69896 94.25715 167.16771 94.7259Q166.65208 95.19465 166.65208 95.86652Q166.65208 96.5384 167.16771 97.00715Q167.69896 97.4759 168.58958 97.4759Q169.48021 97.4759 169.99583 97.00715Q170.52708 96.5384 170.52708 95.86652ZM170.74583 101.1634Q170.74583 100.44465 170.12083 99.88215Q169.51146 99.30402 168.62083 99.30402Q167.71458 99.30402 167.08958 99.88215Q166.48021 100.44465 166.48021 101.17902Q166.48021 101.74152 167.01146 102.1634Q167.54271 102.58527 168.62083 102.58527Q169.69896 102.58527 170.21458 102.1634Q170.74583 101.74152 170.74583 101.1634ZM180.98021 103.21027Q180.98021 103.7259 180.62083 104.06965Q180.26146 104.4134 179.62083 104.4134Q178.99583 104.4134 178.62083 104.06965Q178.26146 103.7259 178.26146 103.21027Q178.26146 102.69465 178.62083 102.36652Q178.99583 102.02277 179.62083 102.02277Q180.26146 102.02277 180.62083 102.36652Q180.98021 102.69465 180.98021 103.21027ZM189.08958 94.5384L189.08958 96.69465Q190.08958 96.36652 190.90208 96.36652Q192.55833 96.36652 193.65208 97.50715Q194.76146 98.64777 194.76146 100.42902Q194.76146 102.27277 193.65208 103.33527Q192.54271 104.38215 190.24583 104.38215Q188.23021 104.38215 187.04271 103.61652Q186.35521 103.17902 186.35521 102.6009Q186.35521 102.24152 186.62083 101.9759Q186.90208 101.71027 187.26146 101.71027Q187.57396 101.71027 187.93333 102.00715Q188.29271 102.30402 188.68333 102.4134Q189.24583 102.58527 190.13646 102.58527Q191.76146 102.58527 192.35521 102.06965Q192.96458 101.5384 192.96458 100.44465Q192.96458 99.38215 192.38646 98.7884Q191.80833 98.17902 190.90208 98.17902Q189.93333 98.17902 188.68333 98.80402Q188.40208 98.96027 188.18333 98.96027Q187.80833 98.96027 187.54271 98.67902Q187.27708 98.39777 187.27708 97.94465L187.27708 92.74152L192.79271 92.74152Q193.44896 92.74152 193.71458 92.99152Q193.99583 93.24152 193.99583 93.64777Q193.99583 94.0384 193.71458 94.2884Q193.44896 94.5384 192.79271 94.5384L189.08958 94.5384ZM202.98021 95.36652Q202.98021 96.42902 202.23021 97.17902Q201.49583 97.9134 200.44896 97.9134Q199.38646 97.9134 198.63646 97.17902Q197.90208 96.42902 197.90208 95.36652Q197.90208 94.31965 198.63646 93.56965Q199.38646 92.81965 200.44896 92.81965Q201.49583 92.81965 202.23021 93.56965Q202.98021 94.30402 202.98021 95.36652ZM201.87083 95.36652Q201.87083 94.77277 201.44896 94.36652Q201.02708 93.94465 200.44896 93.94465Q199.83958 93.94465 199.41771 94.36652Q199.01146 94.77277 199.01146 95.36652Q199.01146 95.96027 199.43333 96.38215Q199.85521 96.80402 200.44896 96.80402Q201.02708 96.80402 201.44896 96.38215Q201.87083 95.96027 201.87083 95.36652ZM205.10521 98.05402L198.46458 100.21027Q198.21458 100.2884 198.10521 100.2884Q197.90208 100.2884 197.74583 100.11652Q197.58958 99.94465 197.58958 99.69465Q197.58958 99.50715 197.71458 99.36652Q197.79271 99.24152 198.12083 99.14777L204.76146 96.99152Q205.01146 96.9134 205.13646 96.9134Q205.33958 96.9134 205.49583 97.08527Q205.65208 97.25715 205.65208 97.49152Q205.65208 97.67902 205.52708 97.83527Q205.43333 97.94465 205.10521 98.05402ZM205.27708 101.83527Q205.27708 102.89777 204.52708 103.64777Q203.77708 104.38215 202.71458 104.38215Q201.66771 104.38215 200.91771 103.63215Q200.16771 102.88215 200.16771 101.83527Q200.16771 100.7884 200.91771 100.0384Q201.66771 99.2884 202.71458 99.2884Q203.77708 99.2884 204.52708 100.0384Q205.27708 100.77277 205.27708 101.83527ZM204.15208 101.83527Q204.15208 101.24152 203.73021 100.83527Q203.30833 100.4134 202.71458 100.4134Q202.13646 100.4134 201.71458 100.83527Q201.29271 101.24152 201.29271 101.83527Q201.29271 102.42902 201.71458 102.8509Q202.13646 103.25715 202.71458 103.25715Q203.30833 103.25715 203.73021 102.8509Q204.15208 102.42902 204.15208 101.83527Z" fill-rule="nonzero"/><path fill="#4285f4" d="M441.45 79.416664C441.45 82.73038 438.7637 85.416664 435.45 85.416664C432.1363 85.416664 429.45 82.73038 429.45 79.416664C429.45 76.10296 432.1363 73.416664 435.45 73.416664C438.7637 73.416664 441.45 76.10296 441.45 79.416664Z" fill-rule="nonzero"/><path fill="#1a1a1a" d="M461.23126 82.74479L459.54376 82.74479L453.85626 69.822914L453.575 69.822914L453.575 87.43229L456.3094 87.43229Q456.84064 87.43229 457.0594 87.635414Q457.29376 87.83854 457.29376 88.18229Q457.29376 88.49479 457.0594 88.71354Q456.84064 88.916664 456.3094 88.916664L450.85626 88.916664Q450.325 88.916664 450.09064 88.71354Q449.8719 88.49479 449.8719 88.18229Q449.8719 87.83854 450.09064 87.635414Q450.325 87.43229 450.85626 87.43229L452.10626 87.43229L452.10626 69.822914L451.16876 69.822914Q450.65314 69.822914 450.41876 69.61979Q450.1844 69.416664 450.1844 69.08854Q450.1844 68.760414 450.41876 68.55729Q450.65314 68.354164 451.16876 68.354164L454.79376 68.354164L460.3875 81.072914L465.8875 68.354164L469.5125 68.354164Q470.0594 68.354164 470.27814 68.55729Q470.5125 68.760414 470.5125 69.08854Q470.5125 69.416664 470.27814 69.61979Q470.0594 69.822914 469.5125 69.822914L468.59064 69.822914L468.59064 87.43229L469.825 87.43229Q470.3719 87.43229 470.59064 87.635414Q470.825 87.83854 470.825 88.18229Q470.825 88.49479 470.59064 88.71354Q470.3719 88.916664 469.825 88.916664L464.3875 88.916664Q463.8719 88.916664 463.6219 88.71354Q463.3875 88.49479 463.3875 88.18229Q463.3875 87.83854 463.60626 87.635414Q463.84064 87.43229 464.3875 87.43229L467.1219 87.43229L467.1219 69.822914L466.79376 69.822914L461.23126 82.74479ZM486.4969 88.916664L486.4969 86.791664Q483.27814 89.49479 479.6219 89.49479Q476.96564 89.49479 475.46564 88.15104Q473.98126 86.80729 473.98126 84.854164Q473.98126 82.71354 475.95 81.11979Q477.91876 79.510414 481.7 79.510414Q482.71564 79.510414 483.90314 79.65104Q485.10626 79.77604 486.4969 80.05729L486.4969 77.666664Q486.4969 76.447914 485.3719 75.55729Q484.2469 74.666664 481.9969 74.666664Q480.27814 74.666664 477.16876 75.666664Q476.60626 75.83854 476.45 75.83854Q476.16876 75.83854 475.96564 75.635414Q475.7625 75.416664 475.7625 75.104164Q475.7625 74.80729 475.9344 74.61979Q476.1844 74.354164 477.91876 73.90104Q480.66876 73.166664 482.075 73.166664Q484.85626 73.166664 486.41876 74.55729Q487.9969 75.93229 487.9969 77.666664L487.9969 87.43229L489.96564 87.43229Q490.5125 87.43229 490.73126 87.635414Q490.96564 87.83854 490.96564 88.18229Q490.96564 88.49479 490.73126 88.71354Q490.5125 88.916664 489.96564 88.916664L486.4969 88.916664ZM486.4969 81.572914Q485.46564 81.27604 484.29376 81.135414Q483.1375 80.99479 481.85626 80.99479Q478.6375 80.99479 476.825 82.36979Q475.46564 83.416664 475.46564 84.854164Q475.46564 86.197914 476.4969 87.11979Q477.54376 88.02604 479.5594 88.02604Q481.46564 88.02604 483.10626 87.260414Q484.7625 86.49479 486.4969 84.822914L486.4969 81.572914ZM504.9969 66.854164L504.9969 87.43229L510.79376 87.43229Q511.34064 87.43229 511.575 87.635414Q511.8094 87.83854 511.8094 88.18229Q511.8094 88.49479 511.575 88.71354Q511.34064 88.916664 510.79376 88.916664L497.71564 88.916664Q497.2 88.916664 496.96564 88.71354Q496.73126 88.49479 496.73126 88.18229Q496.73126 87.83854 496.96564 87.635414Q497.2 87.43229 497.71564 87.43229L503.52814 87.43229L503.52814 68.354164L499.2625 68.354164Q498.7469 68.354164 498.4969 68.15104Q498.2625 67.93229 498.2625 67.58854Q498.2625 67.27604 498.4969 67.072914Q498.73126 66.854164 499.2625 66.854164L504.9969 66.854164ZM534.2469 81.65104L519.2 81.65104Q519.575 84.52604 521.59064 86.27604Q523.60626 88.02604 526.575 88.02604Q528.23126 88.02604 530.04376 87.479164Q531.85626 86.93229 532.9969 86.02604Q533.325 85.77604 533.575 85.77604Q533.85626 85.77604 534.0594 85.99479Q534.27814 86.21354 534.27814 86.510414Q534.27814 86.80729 533.9969 87.08854Q533.15314 87.96354 530.9969 88.729164Q528.84064 89.49479 526.575 89.49479Q522.77814 89.49479 520.23126 87.010414Q517.7 84.52604 517.7 80.99479Q517.7 77.77604 520.075 75.479164Q522.46564 73.166664 525.98126 73.166664Q529.60626 73.166664 531.9344 75.541664Q534.27814 77.90104 534.2469 81.65104ZM532.7469 80.166664Q532.3094 77.71354 530.4344 76.197914Q528.5594 74.666664 525.98126 74.666664Q523.40314 74.666664 521.52814 76.18229Q519.66876 77.68229 519.21564 80.166664L532.7469 80.166664Z" fill-rule="nonzero"/><path fill="#ea4335" d="M441.45 130.41667C441.45 133.73038 438.7637 136.41667 435.45 136.41667C432.1363 136.41667 429.45 133.73038 429.45 130.41667C429.45 127.10296 432.1363 124.416664 435.45 124.416664C438.7637 124.416664 441.45 127.10296 441.45 130.41667Z" fill-rule="nonzero"/><path fill="#1a1a1a" d="M456.7 129.97917L456.7 138.4323L461.7625 138.4323Q462.27814 138.4323 462.5125 138.63542Q462.7469 138.83855 462.7469 139.1823Q462.7469 139.4948 462.5125 139.71355Q462.27814 139.91667 461.7625 139.91667L453.23126 139.91667Q452.7 139.91667 452.46564 139.71355Q452.2469 139.4948 452.2469 139.1823Q452.2469 138.83855 452.46564 138.63542Q452.7 138.4323 453.23126 138.4323L455.21564 138.4323L455.21564 120.82292L453.23126 120.82292Q452.7 120.82292 452.46564 120.6198Q452.2469 120.41667 452.2469 120.08855Q452.2469 119.76042 452.5125 119.52605Q452.7 119.35417 453.23126 119.35417L469.4969 119.35417L469.4969 124.4323Q469.4969 124.96355 469.27814 125.19792Q469.075 125.41667 468.7469 125.41667Q468.41876 125.41667 468.2 125.19792Q467.9969 124.96355 467.9969 124.4323L467.9969 120.82292L456.7 120.82292L456.7 128.51042L461.98126 128.51042L461.98126 126.83855Q461.98126 126.3073 462.1844 126.08855Q462.40314 125.85417 462.7469 125.85417Q463.0594 125.85417 463.2625 126.08855Q463.48126 126.3073 463.48126 126.83855L463.48126 131.65105Q463.48126 132.1823 463.2625 132.41667Q463.0594 132.63542 462.7469 132.63542Q462.40314 132.63542 462.1844 132.41667Q461.98126 132.1823 461.98126 131.65105L461.98126 129.97917L456.7 129.97917ZM490.2469 132.65105L475.2 132.65105Q475.575 135.52605 477.59064 137.27605Q479.60626 139.02605 482.575 139.02605Q484.23126 139.02605 486.04376 138.47917Q487.85626 137.9323 488.9969 137.02605Q489.325 136.77605 489.575 136.77605Q489.85626 136.77605 490.0594 136.9948Q490.27814 137.21355 490.27814 137.51042Q490.27814 137.8073 489.9969 138.08855Q489.15314 138.96355 486.9969 139.72917Q484.84064 140.4948 482.575 140.4948Q478.77814 140.4948 476.23126 138.01042Q473.7 135.52605 473.7 131.9948Q473.7 128.77605 476.075 126.47917Q478.46564 124.16667 481.98126 124.16667Q485.60626 124.16667 487.9344 126.54167Q490.27814 128.90105 490.2469 132.65105ZM488.7469 131.16667Q488.3094 128.71355 486.4344 127.19792Q484.5594 125.66667 481.98126 125.66667Q479.40314 125.66667 477.52814 127.1823Q475.66876 128.6823 475.21564 131.16667L488.7469 131.16667ZM497.52814 124.69792L497.52814 126.1823Q499.40314 124.16667 501.3094 124.16667Q502.45 124.16667 503.3094 124.77605Q504.16876 125.38542 504.7469 126.60417Q505.73126 125.38542 506.7469 124.77605Q507.7625 124.16667 508.77814 124.16667Q510.3719 124.16667 511.325 125.19792Q512.575 126.54167 512.575 128.1198L512.575 138.4323L513.825 138.4323Q514.35626 138.4323 514.575 138.63542Q514.8094 138.83855 514.8094 139.1823Q514.8094 139.4948 514.575 139.71355Q514.35626 139.91667 513.825 139.91667L511.10626 139.91667L511.10626 128.26042Q511.10626 127.13542 510.41876 126.40105Q509.73126 125.66667 508.825 125.66667Q508.02814 125.66667 507.1219 126.27605Q506.23126 126.8698 505.09064 128.65105L505.09064 138.4323L506.325 138.4323Q506.84064 138.4323 507.075 138.63542Q507.3094 138.83855 507.3094 139.1823Q507.3094 139.4948 507.075 139.71355Q506.84064 139.91667 506.325 139.91667L503.59064 139.91667L503.59064 128.3698Q503.59064 127.1823 502.8875 126.4323Q502.2 125.66667 501.34064 125.66667Q500.5594 125.66667 499.77814 126.16667Q498.7 126.88542 497.52814 128.65105L497.52814 138.4323L498.77814 138.4323Q499.3094 138.4323 499.52814 138.63542Q499.7625 138.83855 499.7625 139.1823Q499.7625 139.4948 499.52814 139.71355Q499.3094 139.91667 498.77814 139.91667L494.8094 139.91667Q494.27814 139.91667 494.04376 139.71355Q493.825 139.4948 493.825 139.1823Q493.825 138.83855 494.04376 138.63542Q494.27814 138.4323 494.8094 138.4323L496.0594 138.4323L496.0594 126.1823L494.8094 126.1823Q494.27814 126.1823 494.04376 125.97917Q493.825 125.76042 493.825 125.4323Q493.825 125.1198 494.04376 124.91667Q494.27814 124.69792 494.8094 124.69792L497.52814 124.69792ZM530.4969 139.91667L530.4969 137.79167Q527.27814 140.4948 523.6219 140.4948Q520.96564 140.4948 519.46564 139.15105Q517.98126 137.8073 517.98126 135.85417Q517.98126 133.71355 519.95 132.1198Q521.91876 130.51042 525.7 130.51042Q526.71564 130.51042 527.90314 130.65105Q529.10626 130.77605 530.4969 131.0573L530.4969 128.66667Q530.4969 127.44792 529.3719 126.5573Q528.2469 125.66667 525.9969 125.66667Q524.27814 125.66667 521.16876 126.66667Q520.60626 126.83855 520.45 126.83855Q520.16876 126.83855 519.96564 126.63542Q519.7625 126.41667 519.7625 126.10417Q519.7625 125.8073 519.9344 125.6198Q520.1844 125.35417 521.91876 124.90105Q524.66876 124.16667 526.075 124.16667Q528.85626 124.16667 530.41876 125.5573Q531.9969 126.9323 531.9969 128.66667L531.9969 138.4323L533.96564 138.4323Q534.5125 138.4323 534.73126 138.63542Q534.96564 138.83855 534.96564 139.1823Q534.96564 139.4948 534.73126 139.71355Q534.5125 139.91667 533.96564 139.91667L530.4969 139.91667ZM530.4969 132.57292Q529.46564 132.27605 528.29376 132.13542Q527.1375 131.9948 525.85626 131.9948Q522.6375 131.9948 520.825 133.3698Q519.46564 134.41667 519.46564 135.85417Q519.46564 137.19792 520.4969 138.1198Q521.54376 139.02605 523.5594 139.02605Q525.46564 139.02605 527.10626 138.26042Q528.7625 137.4948 530.4969 135.82292L530.4969 132.57292ZM548.9969 117.85417L548.9969 138.4323L554.79376 138.4323Q555.34064 138.4323 555.575 138.63542Q555.8094 138.83855 555.8094 139.1823Q555.8094 139.4948 555.575 139.71355Q555.34064 139.91667 554.79376 139.91667L541.71564 139.91667Q541.2 139.91667 540.96564 139.71355Q540.73126 139.4948 540.73126 139.1823Q540.73126 138.83855 540.96564 138.63542Q541.2 138.4323 541.71564 138.4323L547.52814 138.4323L547.52814 119.35417L543.2625 119.35417Q542.7469 119.35417 542.4969 119.15105Q542.2625 118.9323 542.2625 118.58855Q542.2625 118.27605 542.4969 118.07292Q542.73126 117.85417 543.2625 117.85417L548.9969 117.85417ZM578.2469 132.65105L563.2 132.65105Q563.575 135.52605 565.59064 137.27605Q567.60626 139.02605 570.575 139.02605Q572.23126 139.02605 574.04376 138.47917Q575.85626 137.9323 576.9969 137.02605Q577.325 136.77605 577.575 136.77605Q577.85626 136.77605 578.0594 136.9948Q578.27814 137.21355 578.27814 137.51042Q578.27814 137.8073 577.9969 138.08855Q577.15314 138.96355 574.9969 139.72917Q572.84064 140.4948 570.575 140.4948Q566.77814 140.4948 564.23126 138.01042Q561.7 135.52605 561.7 131.9948Q561.7 128.77605 564.075 126.47917Q566.46564 124.16667 569.98126 124.16667Q573.60626 124.16667 575.9344 126.54167Q578.27814 128.90105 578.2469 132.65105ZM576.7469 131.16667Q576.3094 128.71355 574.4344 127.19792Q572.5594 125.66667 569.98126 125.66667Q567.40314 125.66667 565.52814 127.1823Q563.66876 128.6823 563.21564 131.16667L576.7469 131.16667Z" fill-rule="nonzero"/><path fill="#000000" d="M31.8 34.159374L31.8 37.378124Q30.175 38.253124 29.034374 38.58125Q27.89375 38.909374 26.565624 38.909374Q24.721874 38.909374 23.159374 38.346874Q21.925 37.925 21.20625 37.284374Q20.503124 36.64375 19.909374 35.378124Q19.315624 34.1125 19.315624 32.565624L19.315624 30.83125Q19.315624 28.425 20.784374 26.534374Q22.753124 23.9875 26.128124 23.9875Q27.1125 23.9875 28.003124 24.190624Q28.89375 24.378124 29.690624 24.784374Q30.159374 24.346874 30.628124 24.346874Q31.14375 24.346874 31.471874 24.70625Q31.8 25.065624 31.8 25.940624L31.8 27.503124Q31.8 28.3625 31.471874 28.7375Q31.14375 29.096874 30.6125 29.096874Q30.190624 29.096874 29.878124 28.846874Q29.64375 28.675 29.4875 28.065624Q29.33125 27.45625 29.128124 27.253124Q28.815624 26.909374 28.003124 26.64375Q27.20625 26.378124 26.221874 26.378124Q24.784374 26.378124 23.7375 26.971874Q22.9875 27.409374 22.346874 28.4875Q21.721874 29.565624 21.721874 30.83125L21.721874 32.565624Q21.721874 34.4875 22.83125 35.503124Q23.95625 36.503124 26.39375 36.503124Q28.05 36.503124 29.409374 35.878124L29.409374 34.159374L26.95625 34.159374Q26.08125 34.159374 25.70625 33.83125Q25.346874 33.4875 25.346874 32.940624Q25.346874 32.409374 25.70625 32.08125Q26.08125 31.7375 26.95625 31.7375L31.221874 31.753124Q32.08125 31.753124 32.45625 32.08125Q32.83125 32.409374 32.83125 32.940624Q32.83125 33.3625 32.565624 33.690624Q32.315624 34.003124 31.8 34.159374ZM45.784374 34.440624L35.925 34.440624Q36.3 35.378124 37.253124 35.95625Q38.20625 36.534374 39.846874 36.534374Q41.175 36.534374 43.39375 35.95625Q44.3 35.721874 44.659374 35.721874Q45.14375 35.721874 45.471874 36.065624Q45.8 36.409374 45.8 36.925Q45.8 37.39375 45.440624 37.721874Q44.971874 38.14375 43.159374 38.55Q41.346874 38.940624 39.659374 38.940624Q36.784374 38.940624 35.05 37.315624Q33.33125 35.675 33.33125 33.3Q33.33125 30.76875 35.190624 29.190624Q37.065624 27.596874 39.503124 27.596874Q40.971874 27.596874 42.190624 28.1125Q43.409374 28.628124 44.01875 29.221874Q44.8625 30.08125 45.409374 31.3625Q45.784374 32.253124 45.784374 33.425L45.784374 34.440624ZM43.128124 32.05Q42.565624 31.01875 41.675 30.503124Q40.784374 29.9875 39.565624 29.9875Q38.346874 29.9875 37.45625 30.503124Q36.565624 31.01875 36.003124 32.05L43.128124 32.05ZM51.315624 27.909374L51.315624 28.721874Q51.971874 28.159374 52.76875 27.878124Q53.565624 27.596874 54.4875 27.596874Q56.6125 27.596874 57.8625 28.909374Q58.846874 29.971874 58.846874 31.675L58.846874 36.14375Q59.6125 36.14375 59.971874 36.4875Q60.33125 36.815624 60.33125 37.346874Q60.33125 37.878124 59.95625 38.221874Q59.596874 38.55 58.721874 38.55L56.565624 38.55Q55.690624 38.55 55.315624 38.221874Q54.95625 37.878124 54.95625 37.346874Q54.95625 36.815624 55.315624 36.4875Q55.675 36.14375 56.440624 36.14375L56.440624 31.6125Q56.440624 30.83125 56.01875 30.45625Q55.471874 29.9875 54.3625 29.9875Q53.534374 29.9875 52.909374 30.315624Q52.284374 30.64375 51.315624 31.675L51.315624 36.14375Q52.253124 36.14375 52.51875 36.315624Q53.096874 36.675 53.096874 37.346874Q53.096874 37.878124 52.721874 38.221874Q52.346874 38.55 51.4875 38.55L48.753124 38.55Q47.89375 38.55 47.51875 38.221874Q47.14375 37.878124 47.14375 37.346874Q47.14375 36.690624 47.70625 36.315624Q47.9875 36.14375 48.925 36.14375L48.925 30.315624Q48.159374 30.315624 47.784374 29.971874Q47.425 29.628124 47.425 29.096874Q47.425 28.58125 47.8 28.253124Q48.175 27.909374 49.034374 27.909374L51.315624 27.909374ZM73.26875 23.346874L73.26875 36.14375L73.675 36.14375Q74.53438 36.14375 74.90938 36.4875Q75.28438 36.815624 75.28438 37.346874Q75.28438 37.878124 74.90938 38.221874Q74.55 38.55 73.675 38.55L70.8625 38.55L70.8625 37.95625Q70.05 38.440624 69.14375 38.690624Q68.25313 38.940624 67.28438 38.940624Q64.58125 38.940624 62.925 37.378124Q61.284374 35.8 61.284374 33.471874Q61.284374 31.034374 63.01875 29.315624Q64.75313 27.596874 67.2375 27.596874Q68.175 27.596874 69.08125 27.878124Q69.9875 28.159374 70.8625 28.7375L70.8625 25.753124L70.45625 25.753124Q69.58125 25.753124 69.20625 25.425Q68.84688 25.08125 68.84688 24.55Q68.84688 24.01875 69.20625 23.690624Q69.58125 23.346874 70.45625 23.346874L73.26875 23.346874ZM70.8625 33.55Q70.8625 32.05 69.81563 31.01875Q68.78438 29.9875 67.26875 29.9875Q65.76875 29.9875 64.72188 31.01875Q63.675 32.05 63.675 33.503124Q63.675 34.83125 64.6125 35.690624Q65.55 36.534374 67.26875 36.534374Q68.97188 36.534374 69.90938 35.690624Q70.8625 34.83125 70.8625 33.55ZM87.78438 34.440624L77.925 34.440624Q78.3 35.378124 79.25313 35.95625Q80.20625 36.534374 81.84688 36.534374Q83.175 36.534374 85.39375 35.95625Q86.3 35.721874 86.65938 35.721874Q87.14375 35.721874 87.47188 36.065624Q87.8 36.409374 87.8 36.925Q87.8 37.39375 87.44063 37.721874Q86.97188 38.14375 85.15938 38.55Q83.34688 38.940624 81.65938 38.940624Q78.78438 38.940624 77.05 37.315624Q75.33125 35.675 75.33125 33.3Q75.33125 30.76875 77.19063 29.190624Q79.06563 27.596874 81.50313 27.596874Q82.97188 27.596874 84.19063 28.1125Q85.40938 28.628124 86.01875 29.221874Q86.8625 30.08125 87.40938 31.3625Q87.78438 32.253124 87.78438 33.425L87.78438 34.440624ZM85.12813 32.05Q84.56563 31.01875 83.675 30.503124Q82.78438 29.9875 81.56563 29.9875Q80.34688 29.9875 79.45625 30.503124Q78.56563 31.01875 78.00313 32.05L85.12813 32.05ZM95.25313 27.909374L95.25313 29.409374Q96.76875 28.315624 97.64375 27.95625Q98.51875 27.596874 99.26875 27.596874Q100.44063 27.596874 101.55 28.45625Q102.3 29.05 102.3 29.659374Q102.3 30.175 101.94063 30.534374Q101.58125 30.878124 101.08125 30.878124Q100.62813 30.878124 100.12813 30.440624Q99.64375 29.9875 99.26875 29.9875Q98.75313 29.9875 97.75313 30.628124Q96.75313 31.253124 95.25313 32.51875L95.25313 36.14375L98.675 36.14375Q99.55 36.14375 99.90938 36.4875Q100.28438 36.815624 100.28438 37.346874Q100.28438 37.878124 99.90938 38.221874Q99.55 38.55 98.675 38.55L91.425 38.55Q90.55 38.55 90.175 38.221874Q89.81563 37.878124 89.81563 37.346874Q89.81563 36.815624 90.175 36.4875Q90.55 36.14375 91.425 36.14375L92.84688 36.14375L92.84688 30.315624L91.9875 30.315624Q91.1125 30.315624 90.7375 29.9875Q90.37813 29.64375 90.37813 29.096874Q90.37813 28.58125 90.7375 28.253124Q91.1125 27.909374 91.9875 27.909374L95.25313 27.909374ZM112.34688 30.721874Q111.76875 30.3625 111.1125 30.175Q110.47188 29.9875 109.76875 29.9875Q108.37813 29.9875 107.55 30.45625Q107.19063 30.64375 107.19063 30.878124Q107.19063 31.159374 107.69063 31.409374Q108.06563 31.596874 109.3625 31.76875Q111.75313 32.096874 112.69063 32.425Q113.925 32.8625 114.58125 33.721874Q115.25313 34.58125 115.25313 35.51875Q115.25313 36.815624 114.1125 37.675Q112.4875 38.940624 109.89375 38.940624Q108.84688 38.940624 107.95625 38.753124Q107.08125 38.58125 106.33125 38.221874Q106.15938 38.378124 105.95625 38.45625Q105.76875 38.534374 105.55 38.534374Q104.9875 38.534374 104.64375 38.175Q104.31563 37.8 104.31563 36.925L104.31563 36.128124Q104.31563 35.253124 104.64375 34.89375Q104.9875 34.51875 105.53438 34.51875Q105.95625 34.51875 106.25313 34.76875Q106.55 35.003124 106.70625 35.58125Q107.26875 36.05 108.03438 36.3Q108.81563 36.534374 109.81563 36.534374Q111.47188 36.534374 112.37813 36.01875Q112.81563 35.753124 112.81563 35.471874Q112.81563 35.003124 112.19063 34.70625Q111.58125 34.39375 109.62813 34.190624Q106.7375 33.878124 105.76875 33.01875Q104.78438 32.159374 104.78438 30.909374Q104.78438 29.6125 105.87813 28.76875Q107.3625 27.596874 109.75313 27.596874Q110.58125 27.596874 111.34688 27.753124Q112.1125 27.909374 112.81563 28.2375Q113.03438 28.065624 113.22188 27.9875Q113.425 27.909374 113.59688 27.909374Q114.08125 27.909374 114.40938 28.284374Q114.7375 28.64375 114.7375 29.51875L114.7375 30.096874Q114.7375 30.878124 114.55 31.159374Q114.175 31.70625 113.53438 31.70625Q113.09688 31.70625 112.76875 31.440624Q112.44063 31.159374 112.34688 30.721874ZM143.9875 33.425Q143.9875 34.815624 143.22188 36.1125Q142.45625 37.39375 140.94063 38.175Q139.425 38.940624 137.76875 38.940624Q136.12813 38.940624 134.62813 38.190624Q133.12813 37.425 132.34688 36.128124Q131.56563 34.815624 131.56563 33.409374Q131.56563 31.95625 132.3625 30.58125Q133.15938 29.190624 134.64375 28.39375Q136.14375 27.596874 137.76875 27.596874Q139.40938 27.596874 140.925 28.409374Q142.44063 29.221874 143.20625 30.596874Q143.9875 31.971874 143.9875 33.425ZM141.59688 33.440624Q141.59688 32.284374 140.75313 31.3Q139.62813 29.9875 137.76875 29.9875Q136.14375 29.9875 135.05 31.034374Q133.95625 32.08125 133.95625 33.45625Q133.95625 34.58125 135.05 35.565624Q136.15938 36.534374 137.76875 36.534374Q139.39375 36.534374 140.4875 35.565624Q141.59688 34.58125 141.59688 33.440624ZM151.7375 30.315624L151.7375 36.14375L155.15938 36.14375Q156.01875 36.14375 156.39375 36.4875Q156.76875 36.815624 156.76875 37.346874Q156.76875 37.878124 156.39375 38.221874Q156.01875 38.55 155.15938 38.55L147.90938 38.55Q147.03438 38.55 146.65938 38.221874Q146.3 37.878124 146.3 37.346874Q146.3 36.815624 146.65938 36.4875Q147.03438 36.14375 147.90938 36.14375L149.33125 36.14375L149.33125 30.315624L148.19063 30.315624Q147.31563 30.315624 146.94063 29.9875Q146.58125 29.64375 146.58125 29.096874Q146.58125 28.58125 146.94063 28.253124Q147.31563 27.909374 148.19063 27.909374L149.33125 27.909374L149.33125 26.9875Q149.33125 25.425 150.50313 24.39375Q151.69063 23.346874 153.925 23.346874Q154.925 23.346874 156.22188 23.534374Q157.53438 23.70625 157.89375 24.034374Q158.26875 24.3625 158.26875 24.878124Q158.26875 25.440624 157.94063 25.784374Q157.6125 26.128124 157.14375 26.128124Q156.90938 26.128124 156.47188 26.05Q154.9875 25.753124 153.83125 25.753124Q152.64375 25.753124 152.19063 26.1125Q151.7375 26.471874 151.7375 26.9875L151.7375 27.909374L155.44063 27.909374Q156.3 27.909374 156.675 28.253124Q157.05 28.58125 157.05 29.1125Q157.05 29.64375 156.675 29.9875Q156.3 30.315624 155.44063 30.315624L151.7375 30.315624ZM179.75313 31.721874L177.53438 38.55L174.83125 38.55L173.40938 26.753124Q172.8625 26.675 172.56563 26.3625Q172.28438 26.05 172.28438 25.58125Q172.28438 25.01875 172.65938 24.675Q173.03438 24.33125 173.89375 24.33125L177.09688 24.346874Q177.97188 24.346874 178.33125 24.675Q178.70625 25.003124 178.70625 25.534374Q178.70625 26.08125 178.33125 26.425Q177.97188 26.753124 177.09688 26.753124L175.84688 26.753124L176.64375 33.45625L178.53438 27.878124L181.01875 27.878124L182.89375 33.45625L183.69063 26.753124L182.44063 26.753124Q181.58125 26.753124 181.20625 26.425Q180.83125 26.08125 180.83125 25.534374Q180.83125 25.003124 181.20625 24.675Q181.58125 24.33125 182.44063 24.33125L185.62813 24.346874Q186.50313 24.346874 186.8625 24.675Q187.2375 25.003124 187.2375 25.534374Q187.2375 26.003124 186.94063 26.33125Q186.64375 26.659374 186.09688 26.753124L184.72188 38.55L182.06563 38.55L179.75313 31.721874ZM199.78438 34.440624L189.925 34.440624Q190.3 35.378124 191.25313 35.95625Q192.20625 36.534374 193.84688 36.534374Q195.175 36.534374 197.39375 35.95625Q198.3 35.721874 198.65938 35.721874Q199.14375 35.721874 199.47188 36.065624Q199.8 36.409374 199.8 36.925Q199.8 37.39375 199.44063 37.721874Q198.97188 38.14375 197.15938 38.55Q195.34688 38.940624 193.65938 38.940624Q190.78438 38.940624 189.05 37.315624Q187.33125 35.675 187.33125 33.3Q187.33125 30.76875 189.19063 29.190624Q191.06563 27.596874 193.50313 27.596874Q194.97188 27.596874 196.19063 28.1125Q197.40938 28.628124 198.01875 29.221874Q198.8625 30.08125 199.40938 31.3625Q199.78438 32.253124 199.78438 33.425L199.78438 34.440624ZM197.12813 32.05Q196.56563 31.01875 195.675 30.503124Q194.78438 29.9875 193.56563 29.9875Q192.34688 29.9875 191.45625 30.503124Q190.56563 31.01875 190.00313 32.05L197.12813 32.05ZM204.72188 23.346874L204.72188 28.7375Q205.59688 28.159374 206.50313 27.878124Q207.425 27.596874 208.34688 27.596874Q210.84688 27.596874 212.58125 29.315624Q214.31563 31.034374 214.31563 33.471874Q214.31563 35.8 212.65938 37.378124Q211.00313 38.940624 208.3 38.940624Q207.33125 38.940624 206.44063 38.690624Q205.55 38.440624 204.72188 37.95625L204.72188 38.55L201.90938 38.55Q201.05 38.55 200.675 38.221874Q200.3 37.878124 200.3 37.346874Q200.3 36.815624 200.675 36.4875Q201.05 36.14375 201.90938 36.14375L202.31563 36.14375L202.31563 25.753124L201.90938 25.753124Q201.05 25.753124 200.675 25.425Q200.3 25.08125 200.3 24.55Q200.3 24.01875 200.675 23.690624Q201.05 23.346874 201.90938 23.346874L204.72188 23.346874ZM211.90938 33.55Q211.90938 32.05 210.8625 31.01875Q209.81563 29.9875 208.31563 29.9875Q206.81563 29.9875 205.76875 31.01875Q204.72188 32.05 204.72188 33.503124Q204.72188 34.83125 205.65938 35.690624Q206.59688 36.534374 208.31563 36.534374Q210.01875 36.534374 210.95625 35.690624Q211.90938 34.83125 211.90938 33.55ZM230.37813 36.14375L230.37813 26.753124Q229.6125 26.7375 229.25313 26.409374Q228.89375 26.065624 228.89375 25.534374Q228.89375 25.003124 229.25313 24.675Q229.62813 24.33125 230.50313 24.33125L235.51875 24.346874Q236.69063 24.346874 237.81563 24.784374Q238.94063 25.20625 239.6125 25.878124Q240.12813 26.378124 240.675 27.26875Q241.2375 28.14375 241.51875 29.01875Q241.8 29.878124 241.8 31.128124L241.8 32.284374Q241.8 33.8 241.28438 34.9875Q240.76875 36.159374 239.925 36.909374Q239.09688 37.64375 238.3625 38.003124Q237.19063 38.55 235.33125 38.55L230.50313 38.55Q229.62813 38.55 229.25313 38.221874Q228.89375 37.878124 228.89375 37.346874Q228.89375 36.815624 229.25313 36.471874Q229.62813 36.128124 230.37813 36.14375ZM232.78438 36.14375L235.33125 36.14375Q236.76875 36.14375 237.4875 35.7375Q238.44063 35.190624 238.925 34.3625Q239.40938 33.534374 239.40938 32.20625L239.40938 31.065624Q239.40938 29.940624 238.97188 29.08125Q238.28438 27.7375 237.44063 27.253124Q236.59688 26.753124 235.31563 26.753124L232.78438 26.753124L232.78438 36.14375ZM255.78438 34.440624L245.925 34.440624Q246.3 35.378124 247.25313 35.95625Q248.20625 36.534374 249.84688 36.534374Q251.175 36.534374 253.39375 35.95625Q254.3 35.721874 254.65938 35.721874Q255.14375 35.721874 255.47188 36.065624Q255.8 36.409374 255.8 36.925Q255.8 37.39375 255.44063 37.721874Q254.97188 38.14375 253.15938 38.55Q251.34688 38.940624 249.65938 38.940624Q246.78438 38.940624 245.05 37.315624Q243.33125 35.675 243.33125 33.3Q243.33125 30.76875 245.19063 29.190624Q247.06563 27.596874 249.50313 27.596874Q250.97188 27.596874 252.19063 28.1125Q253.40938 28.628124 254.01875 29.221874Q254.8625 30.08125 255.40938 31.3625Q255.78438 32.253124 255.78438 33.425L255.78438 34.440624ZM253.12813 32.05Q252.56563 31.01875 251.675 30.503124Q250.78438 29.9875 249.56563 29.9875Q248.34688 29.9875 247.45625 30.503124Q246.56563 31.01875 246.00313 32.05L253.12813 32.05ZM263.76874 35.628124L266.3625 30.315624Q265.39374 30.315624 265.1281 30.14375Q264.55 29.784374 264.55 29.096874Q264.55 28.58125 264.90936 28.253124Q265.28436 27.909374 266.14374 27.909374L269.4406 27.909374Q270.3156 27.909374 270.675 28.253124Q271.05 28.58125 271.05 29.1125Q271.05 29.64375 270.675 29.9875Q270.3156 30.315624 269.4406 30.315624L269.05 30.315624L265.01874 38.55L262.51874 38.55L258.5031 30.315624L258.15936 30.315624Q257.28436 30.315624 256.90936 29.9875Q256.55 29.64375 256.55 29.096874Q256.55 28.58125 256.90936 28.253124Q257.28436 27.909374 258.15936 27.909374L261.3781 27.909374Q262.2375 27.909374 262.59686 28.253124Q262.97186 28.58125 262.97186 29.1125Q262.97186 29.784374 262.40936 30.128124Q262.1281 30.315624 261.15936 30.315624L263.76874 35.628124ZM283.78436 34.440624L273.925 34.440624Q274.3 35.378124 275.2531 35.95625Q276.20624 36.534374 277.84686 36.534374Q279.175 36.534374 281.39374 35.95625Q282.3 35.721874 282.65936 35.721874Q283.14374 35.721874 283.47186 36.065624Q283.8 36.409374 283.8 36.925Q283.8 37.39375 283.4406 37.721874Q282.97186 38.14375 281.15936 38.55Q279.34686 38.940624 277.65936 38.940624Q274.78436 38.940624 273.05 37.315624Q271.33124 35.675 271.33124 33.3Q271.33124 30.76875 273.1906 29.190624Q275.0656 27.596874 277.5031 27.596874Q278.97186 27.596874 280.1906 28.1125Q281.40936 28.628124 282.01874 29.221874Q282.8625 30.08125 283.40936 31.3625Q283.78436 32.253124 283.78436 33.425L283.78436 34.440624ZM281.1281 32.05Q280.5656 31.01875 279.675 30.503124Q278.78436 29.9875 277.5656 29.9875Q276.34686 29.9875 275.45624 30.503124Q274.5656 31.01875 274.0031 32.05L281.1281 32.05ZM292.95624 23.346874L292.95624 36.14375L295.83124 36.14375Q296.70624 36.14375 297.0656 36.4875Q297.4406 36.815624 297.4406 37.346874Q297.4406 37.878124 297.0656 38.221874Q296.70624 38.55 295.83124 38.55L287.675 38.55Q286.8 38.55 286.425 38.221874Q286.0656 37.878124 286.0656 37.346874Q286.0656 36.815624 286.425 36.4875Q286.8 36.14375 287.675 36.14375L290.55 36.14375L290.55 25.753124L288.6125 25.753124Q287.76874 25.753124 287.39374 25.425Q287.01874 25.08125 287.01874 24.55Q287.01874 24.01875 287.3781 23.690624Q287.7531 23.346874 288.6125 23.346874L292.95624 23.346874ZM311.9875 33.425Q311.9875 34.815624 311.22186 36.1125Q310.45624 37.39375 308.9406 38.175Q307.425 38.940624 305.76874 38.940624Q304.1281 38.940624 302.6281 38.190624Q301.1281 37.425 300.34686 36.128124Q299.5656 34.815624 299.5656 33.409374Q299.5656 31.95625 300.3625 30.58125Q301.15936 29.190624 302.64374 28.39375Q304.14374 27.596874 305.76874 27.596874Q307.40936 27.596874 308.925 28.409374Q310.4406 29.221874 311.20624 30.596874Q311.9875 31.971874 311.9875 33.425ZM309.59686 33.440624Q309.59686 32.284374 308.7531 31.3Q307.6281 29.9875 305.76874 29.9875Q304.14374 29.9875 303.05 31.034374Q301.95624 32.08125 301.95624 33.45625Q301.95624 34.58125 303.05 35.565624Q304.15936 36.534374 305.76874 36.534374Q307.39374 36.534374 308.4875 35.565624Q309.59686 34.58125 309.59686 33.440624ZM316.76874 37.221874L316.76874 41.159374L318.20624 41.159374Q319.08124 41.159374 319.4406 41.4875Q319.8156 41.83125 319.8156 42.378124Q319.8156 42.89375 319.4406 43.221874Q319.08124 43.565624 318.20624 43.565624L313.95624 43.565624Q313.09686 43.565624 312.72186 43.221874Q312.34686 42.89375 312.34686 42.378124Q312.34686 41.83125 312.72186 41.4875Q313.09686 41.159374 313.95624 41.159374L314.3625 41.159374L314.3625 30.315624L313.95624 30.315624Q313.09686 30.315624 312.72186 29.9875Q312.34686 29.64375 312.34686 29.096874Q312.34686 28.58125 312.72186 28.253124Q313.09686 27.909374 313.95624 27.909374L316.76874 27.909374L316.76874 28.721874Q317.6125 28.159374 318.51874 27.878124Q319.425 27.596874 320.3625 27.596874Q322.83124 27.596874 324.5656 29.26875Q326.3 30.925 326.3 33.08125Q326.3 35.471874 324.2531 37.01875Q322.53436 38.3 320.39374 38.3Q319.47186 38.3 318.5656 38.034374Q317.65936 37.76875 316.76874 37.221874ZM323.89374 33.096874Q323.89374 32.596874 323.4875 31.815624Q323.09686 31.034374 322.26874 30.51875Q321.4406 29.9875 320.33124 29.9875Q318.53436 29.9875 317.4875 31.346874Q316.76874 32.26875 316.76874 33.128124Q316.76874 34.08125 317.78436 34.9875Q318.8156 35.89375 320.33124 35.89375Q321.8625 35.89375 322.8781 35.003124Q323.89374 34.096874 323.89374 33.096874ZM339.78436 34.440624L329.925 34.440624Q330.3 35.378124 331.2531 35.95625Q332.20624 36.534374 333.84686 36.534374Q335.175 36.534374 337.39374 35.95625Q338.3 35.721874 338.65936 35.721874Q339.14374 35.721874 339.47186 36.065624Q339.8 36.409374 339.8 36.925Q339.8 37.39375 339.4406 37.721874Q338.97186 38.14375 337.15936 38.55Q335.34686 38.940624 333.65936 38.940624Q330.78436 38.940624 329.05 37.315624Q327.33124 35.675 327.33124 33.3Q327.33124 30.76875 329.1906 29.190624Q331.0656 27.596874 333.5031 27.596874Q334.97186 27.596874 336.1906 28.1125Q337.40936 28.628124 338.01874 29.221874Q338.8625 30.08125 339.40936 31.3625Q339.78436 32.253124 339.78436 33.425L339.78436 34.440624ZM337.1281 32.05Q336.5656 31.01875 335.675 30.503124Q334.78436 29.9875 333.5656 29.9875Q332.34686 29.9875 331.45624 30.503124Q330.5656 31.01875 330.0031 32.05L337.1281 32.05ZM347.2531 27.909374L347.2531 29.409374Q348.76874 28.315624 349.64374 27.95625Q350.51874 27.596874 351.26874 27.596874Q352.4406 27.596874 353.55 28.45625Q354.3 29.05 354.3 29.659374Q354.3 30.175 353.9406 30.534374Q353.58124 30.878124 353.08124 30.878124Q352.6281 30.878124 352.1281 30.440624Q351.64374 29.9875 351.26874 29.9875Q350.7531 29.9875 349.7531 30.628124Q348.7531 31.253124 347.2531 32.51875L347.2531 36.14375L350.675 36.14375Q351.55 36.14375 351.90936 36.4875Q352.28436 36.815624 352.28436 37.346874Q352.28436 37.878124 351.90936 38.221874Q351.55 38.55 350.675 38.55L343.425 38.55Q342.55 38.55 342.175 38.221874Q341.8156 37.878124 341.8156 37.346874Q341.8156 36.815624 342.175 36.4875Q342.55 36.14375 343.425 36.14375L344.84686 36.14375L344.84686 30.315624L343.9875 30.315624Q343.1125 30.315624 342.7375 29.9875Q342.3781 29.64375 342.3781 29.096874Q342.3781 28.58125 342.7375 28.253124Q343.1125 27.909374 343.9875 27.909374L347.2531 27.909374ZM364.34686 30.721874Q363.76874 30.3625 363.1125 30.175Q362.47186 29.9875 361.76874 29.9875Q360.3781 29.9875 359.55 30.45625Q359.1906 30.64375 359.1906 30.878124Q359.1906 31.159374 359.6906 31.409374Q360.0656 31.596874 361.3625 31.76875Q363.7531 32.096874 364.6906 32.425Q365.925 32.8625 366.58124 33.721874Q367.2531 34.58125 367.2531 35.51875Q367.2531 36.815624 366.1125 37.675Q364.4875 38.940624 361.89374 38.940624Q360.84686 38.940624 359.95624 38.753124Q359.08124 38.58125 358.33124 38.221874Q358.15936 38.378124 357.95624 38.45625Q357.76874 38.534374 357.55 38.534374Q356.9875 38.534374 356.64374 38.175Q356.3156 37.8 356.3156 36.925L356.3156 36.128124Q356.3156 35.253124 356.64374 34.89375Q356.9875 34.51875 357.53436 34.51875Q357.95624 34.51875 358.2531 34.76875Q358.55 35.003124 358.70624 35.58125Q359.26874 36.05 360.03436 36.3Q360.8156 36.534374 361.8156 36.534374Q363.47186 36.534374 364.3781 36.01875Q364.8156 35.753124 364.8156 35.471874Q364.8156 35.003124 364.1906 34.70625Q363.58124 34.39375 361.6281 34.190624Q358.7375 33.878124 357.76874 33.01875Q356.78436 32.159374 356.78436 30.909374Q356.78436 29.6125 357.8781 28.76875Q359.3625 27.596874 361.7531 27.596874Q362.58124 27.596874 363.34686 27.753124Q364.1125 27.909374 364.8156 28.2375Q365.03436 28.065624 365.22186 27.9875Q365.425 27.909374 365.59686 27.909374Q366.08124 27.909374 366.40936 28.284374Q366.7375 28.64375 366.7375 29.51875L366.7375 30.096874Q366.7375 30.878124 366.55 31.159374Q366.175 31.70625 365.53436 31.70625Q365.09686 31.70625 364.76874 31.440624Q364.4406 31.159374 364.34686 30.721874Z" fill-rule="nonzero"/></svg>