<svg version="1.1" viewBox="0.0 0.0 600.0 371.0" fill="none" stroke="none" stroke-linecap="square" stroke-miterlimit="10" width="600" height="371" xmlns:xlink="http://www.w3.org/1999/xlink" xmlns="http://www.w3.org/2000/svg"><path fill="#5fffff" d="M0 0L600.0 0L600.0 371.0L0 371.0L0 0Z" fill-rule="nonzero"/><path fill="#000000" d="M347.5092 72.78395C366.9996 63.65094 388.2603 58.916668 409.78445 58.916668L409.78445 205.68333Z" fill-rule="nonzero"/><path fill="#fbbc04" d="M270.6353 159.01456C283.39468 120.97082 311.17413 89.810165 347.5092 72.78395L409.78445 205.68333Z" fill-rule="nonzero"/><path fill="#4285f4" d="M302.2289 305.54456C265.66855 266.1672 253.54933 209.95868 270.6353 159.01456L409.78445 205.68333Z" fill-rule="nonzero"/><path fill="#34a853" d="M409.78445 58.916668C476.8869 58.916668 535.44385 104.42664 552.0088 169.45235C568.5738 234.47806 538.92773 302.45734 480.00378 334.56195C421.0798 366.6666 347.886 354.71948 302.2289 305.54456L409.78445 205.68333Z" fill-rule="nonzero"/><path fill="#000000" d="M475.73483 243.16628Q476.39108 242.6194 476.9692 242.3694Q477.56296 242.1194 478.23483 242.1194Q479.6567 242.1194 480.7192 243.2444Q481.7817 244.3694 481.7817 246.07253Q481.7817 247.65065 480.7817 248.6194Q479.79733 249.58815 478.10983 249.58815Q476.68796 249.58815 475.76608 248.9319Q474.85983 248.26003 474.39108 246.90065Q473.93796 245.52565 473.93796 243.83815Q473.93796 241.82253 474.85983 240.47878Q475.7817 239.13503 477.01608 238.40065Q478.26608 237.66628 479.6567 237.66628Q480.76608 237.66628 481.35983 238.08815Q481.76608 238.38503 481.76608 238.82253Q481.76608 239.22878 481.50046 239.4944Q481.23483 239.76003 480.85983 239.76003Q480.6567 239.76003 480.26608 239.54128Q480.01608 239.4319 479.79733 239.4319Q478.93796 239.4319 478.01608 239.91628Q477.0942 240.40065 476.42233 241.41628Q475.95358 242.1194 475.73483 243.16628ZM476.00046 245.96315Q476.2817 247.01003 476.76608 247.40065Q477.25046 247.79128 478.12546 247.79128Q479.01608 247.79128 479.50046 247.32253Q479.98483 246.85378 479.98483 246.0569Q479.98483 245.13503 479.42233 244.54128Q478.87546 243.9319 478.18796 243.9319Q477.64108 243.9319 477.01608 244.46315Q476.4067 244.9944 476.00046 245.96315ZM491.00046 243.3069Q491.79733 243.85378 492.18796 244.57253Q492.5942 245.27565 492.5942 246.16628Q492.5942 247.1194 492.06296 247.9319Q491.54733 248.7444 490.54733 249.16628Q489.56296 249.58815 487.95358 249.58815Q485.85983 249.58815 484.81296 248.9319Q484.2192 248.57253 484.2192 248.0569Q484.2192 247.66628 484.4692 247.40065Q484.73483 247.13503 485.10983 247.13503Q485.35983 247.13503 485.64108 247.3069Q486.01608 247.57253 486.35983 247.66628Q486.89108 247.79128 487.81296 247.79128Q489.39108 247.79128 490.0942 247.38503Q490.79733 246.96315 490.79733 246.21315Q490.79733 245.66628 490.37546 245.15065Q489.9692 244.63503 489.29733 244.35378Q488.89108 244.19753 487.95358 244.13503Q487.50046 244.10378 487.25046 243.85378Q487.01608 243.60378 487.01608 243.2444Q487.01608 242.85378 487.2817 242.58815Q487.54733 242.32253 487.95358 242.32253Q488.8442 242.32253 488.9067 242.32253Q489.26608 242.27565 489.60983 242.08815Q489.9692 241.90065 490.17233 241.5569Q490.39108 241.21315 490.39108 240.85378Q490.39108 240.29128 489.89108 239.8694Q489.39108 239.44753 488.37546 239.44753Q487.07858 239.44753 486.39108 240.21315Q486.18796 240.4319 486.06296 240.4944Q485.87546 240.58815 485.6567 240.58815Q485.2817 240.58815 485.01608 240.32253Q484.75046 240.0569 484.75046 239.66628Q484.75046 239.07253 485.56296 238.4944Q486.73483 237.66628 488.50046 237.66628Q490.17233 237.66628 491.18796 238.6194Q492.20358 239.5569 492.20358 240.90065Q492.20358 241.58815 491.89108 242.19753Q491.5942 242.79128 491.00046 243.3069ZM500.81296 248.41628Q500.81296 248.9319 500.45358 249.27565Q500.0942 249.6194 499.45358 249.6194Q498.82858 249.6194 498.45358 249.27565Q498.0942 248.9319 498.0942 248.41628Q498.0942 247.90065 498.45358 247.57253Q498.82858 247.22878 499.45358 247.22878Q500.0942 247.22878 500.45358 247.57253Q500.81296 247.90065 500.81296 248.41628ZM511.3442 237.66628L511.3442 247.52565L513.17236 247.52565Q513.8286 247.52565 514.09424 247.77565Q514.3755 248.02565 514.3755 248.4319Q514.3755 248.82253 514.09424 249.07253Q513.8286 249.32253 513.17236 249.32253L507.73483 249.32253Q507.07858 249.32253 506.79733 249.07253Q506.5317 248.82253 506.5317 248.41628Q506.5317 248.02565 506.79733 247.77565Q507.07858 247.52565 507.73483 247.52565L509.54733 247.52565L509.54733 240.01003L507.93796 240.4319Q507.54733 240.52565 507.35983 240.52565Q507.01608 240.52565 506.76608 240.26003Q506.51608 239.9944 506.51608 239.58815Q506.51608 239.22878 506.70358 239.02565Q506.89108 238.82253 507.4692 238.66628L511.3442 237.66628ZM522.813 240.57253Q522.813 241.63503 522.063 242.38503Q521.3286 243.1194 520.28174 243.1194Q519.21924 243.1194 518.46924 242.38503Q517.73486 241.63503 517.73486 240.57253Q517.73486 239.52565 518.46924 238.77565Q519.21924 238.02565 520.28174 238.02565Q521.3286 238.02565 522.063 238.77565Q522.813 239.51003 522.813 240.57253ZM521.7036 240.57253Q521.7036 239.97878 521.28174 239.57253Q520.85986 239.15065 520.28174 239.15065Q519.67236 239.15065 519.2505 239.57253Q518.84424 239.97878 518.84424 240.57253Q518.84424 241.16628 519.2661 241.58815Q519.688 242.01003 520.28174 242.01003Q520.85986 242.01003 521.28174 241.58815Q521.7036 241.16628 521.7036 240.57253ZM524.938 243.26003L518.29736 245.41628Q518.04736 245.4944 517.938 245.4944Q517.73486 245.4944 517.5786 245.32253Q517.42236 245.15065 517.42236 244.90065Q517.42236 244.71315 517.54736 244.57253Q517.6255 244.44753 517.9536 244.35378L524.59424 242.19753Q524.84424 242.1194 524.96924 242.1194Q525.17236 242.1194 525.3286 242.29128Q525.48486 242.46315 525.48486 242.69753Q525.48486 242.88503 525.35986 243.04128Q525.2661 243.15065 524.938 243.26003ZM525.10986 247.04128Q525.10986 248.10378 524.35986 248.85378Q523.60986 249.58815 522.54736 249.58815Q521.5005 249.58815 520.7505 248.83815Q520.0005 248.08815 520.0005 247.04128Q520.0005 245.9944 520.7505 245.2444Q521.5005 244.4944 522.54736 244.4944Q523.60986 244.4944 524.35986 245.2444Q525.10986 245.97878 525.10986 247.04128ZM523.98486 247.04128Q523.98486 246.44753 523.563 246.04128Q523.1411 245.6194 522.54736 245.6194Q521.96924 245.6194 521.54736 246.04128Q521.1255 246.44753 521.1255 247.04128Q521.1255 247.63503 521.54736 248.0569Q521.96924 248.46315 522.54736 248.46315Q523.1411 248.46315 523.563 248.0569Q523.98486 247.63503 523.98486 247.04128Z" fill-rule="nonzero"/><path fill="#000000" d="M291.44302 219.47462L291.44302 229.334L293.27115 229.334Q293.9274 229.334 294.19302 229.584Q294.47427 229.834 294.47427 230.24025Q294.47427 230.63087 294.19302 230.88087Q293.9274 231.13087 293.27115 231.13087L287.83365 231.13087Q287.1774 231.13087 286.89615 230.88087Q286.63052 230.63087 286.63052 230.22462Q286.63052 229.834 286.89615 229.584Q287.1774 229.334 287.83365 229.334L289.64615 229.334L289.64615 221.81837L288.03677 222.24025Q287.64615 222.334 287.45865 222.334Q287.1149 222.334 286.8649 222.06837Q286.6149 221.80275 286.6149 221.3965Q286.6149 221.03712 286.8024 220.834Q286.9899 220.63087 287.56802 220.47462L291.44302 219.47462ZM303.39615 221.55275L299.27115 221.55275Q299.2399 222.084 298.9899 222.31837Q298.75552 222.55275 298.3649 222.55275Q297.97427 222.55275 297.72427 222.28712Q297.47427 222.00587 297.47427 221.34962L297.47427 219.75587L305.28677 219.75587L305.28677 221.55275L302.3649 230.24025Q302.19302 230.78712 301.95865 230.97462Q301.7399 231.1465 301.4274 231.1465Q301.03677 231.1465 300.77115 230.88087Q300.50552 230.61525 300.50552 230.2715Q300.50552 230.084 300.64615 229.66212L303.39615 221.55275ZM313.91177 230.22462Q313.91177 230.74025 313.5524 231.084Q313.19302 231.42775 312.5524 231.42775Q311.9274 231.42775 311.5524 231.084Q311.19302 230.74025 311.19302 230.22462Q311.19302 229.709 311.5524 229.38087Q311.9274 229.03712 312.5524 229.03712Q313.19302 229.03712 313.5524 229.38087Q313.91177 229.709 313.91177 230.22462ZM324.44302 219.47462L324.44302 229.334L326.27115 229.334Q326.9274 229.334 327.19302 229.584Q327.47427 229.834 327.47427 230.24025Q327.47427 230.63087 327.19302 230.88087Q326.9274 231.13087 326.27115 231.13087L320.83365 231.13087Q320.1774 231.13087 319.89615 230.88087Q319.63052 230.63087 319.63052 230.22462Q319.63052 229.834 319.89615 229.584Q320.1774 229.334 320.83365 229.334L322.64615 229.334L322.64615 221.81837L321.03677 222.24025Q320.64615 222.334 320.45865 222.334Q320.1149 222.334 319.8649 222.06837Q319.6149 221.80275 319.6149 221.3965Q319.6149 221.03712 319.8024 220.834Q319.9899 220.63087 320.56802 220.47462L324.44302 219.47462ZM335.91177 222.38087Q335.91177 223.44337 335.16177 224.19337Q334.4274 224.92775 333.38052 224.92775Q332.31802 224.92775 331.56802 224.19337Q330.83365 223.44337 330.83365 222.38087Q330.83365 221.334 331.56802 220.584Q332.31802 219.834 333.38052 219.834Q334.4274 219.834 335.16177 220.584Q335.91177 221.31837 335.91177 222.38087ZM334.8024 222.38087Q334.8024 221.78712 334.38052 221.38087Q333.95865 220.959 333.38052 220.959Q332.77115 220.959 332.34927 221.38087Q331.94302 221.78712 331.94302 222.38087Q331.94302 222.97462 332.3649 223.3965Q332.78677 223.81837 333.38052 223.81837Q333.95865 223.81837 334.38052 223.3965Q334.8024 222.97462 334.8024 222.38087ZM338.03677 225.06837L331.39615 227.22462Q331.14615 227.30275 331.03677 227.30275Q330.83365 227.30275 330.6774 227.13087Q330.52115 226.959 330.52115 226.709Q330.52115 226.5215 330.64615 226.38087Q330.72427 226.25587 331.0524 226.16212L337.69302 224.00587Q337.94302 223.92775 338.06802 223.92775Q338.27115 223.92775 338.4274 224.09962Q338.58365 224.2715 338.58365 224.50587Q338.58365 224.69337 338.45865 224.84962Q338.3649 224.959 338.03677 225.06837ZM338.20865 228.84962Q338.20865 229.91212 337.45865 230.66212Q336.70865 231.3965 335.64615 231.3965Q334.59927 231.3965 333.84927 230.6465Q333.09927 229.8965 333.09927 228.84962Q333.09927 227.80275 333.84927 227.05275Q334.59927 226.30275 335.64615 226.30275Q336.70865 226.30275 337.45865 227.05275Q338.20865 227.78712 338.20865 228.84962ZM337.08365 228.84962Q337.08365 228.25587 336.66177 227.84962Q336.2399 227.42775 335.64615 227.42775Q335.06802 227.42775 334.64615 227.84962Q334.22427 228.25587 334.22427 228.84962Q334.22427 229.44337 334.64615 229.86525Q335.06802 230.2715 335.64615 230.2715Q336.2399 230.2715 336.66177 229.86525Q337.08365 229.44337 337.08365 228.84962Z" fill-rule="nonzero"/><path fill="#000000" d="M315.26846 133.15535L315.26846 143.01472L317.0966 143.01472Q317.75284 143.01472 318.01846 143.26472Q318.2997 143.51472 318.2997 143.92097Q318.2997 144.3116 318.01846 144.5616Q317.75284 144.8116 317.0966 144.8116L311.6591 144.8116Q311.00284 144.8116 310.7216 144.5616Q310.45596 144.3116 310.45596 143.90535Q310.45596 143.51472 310.7216 143.26472Q311.00284 143.01472 311.6591 143.01472L313.4716 143.01472L313.4716 135.4991L311.8622 135.92097Q311.4716 136.01472 311.2841 136.01472Q310.94034 136.01472 310.69034 135.7491Q310.44034 135.48347 310.44034 135.07722Q310.44034 134.71785 310.62784 134.51472Q310.81534 134.3116 311.39346 134.15535L315.26846 133.15535ZM323.6747 143.01472L327.62784 143.01472Q327.94034 142.7491 328.2372 142.7491Q328.64346 142.7491 328.87784 143.03035Q329.12784 143.29597 329.12784 143.95222L329.12784 144.8116L320.9247 144.8116L320.9247 142.90535Q325.7997 138.88972 326.7997 137.73347Q327.31534 137.13972 327.31534 136.6241Q327.31534 135.96785 326.7372 135.46785Q326.1591 134.95222 325.20596 134.95222Q324.2372 134.95222 323.5966 135.51472Q323.26846 135.8116 323.06534 136.40535Q322.94034 136.76472 322.7216 136.9366Q322.50284 137.09285 322.19034 137.09285Q321.81534 137.09285 321.5497 136.82722Q321.2841 136.5616 321.2841 136.20222Q321.2841 135.6866 321.76846 134.88972Q322.25284 134.09285 323.19034 133.6241Q324.12784 133.15535 325.2372 133.15535Q326.94034 133.15535 328.01846 134.1866Q329.1122 135.21785 329.1122 136.6866Q329.1122 137.42097 328.7997 138.0616Q328.4872 138.70222 327.2997 139.82722Q326.37784 140.71785 323.6747 143.01472ZM337.7372 143.90535Q337.7372 144.42097 337.37784 144.76472Q337.01846 145.10847 336.37784 145.10847Q335.75284 145.10847 335.37784 144.76472Q335.01846 144.42097 335.01846 143.90535Q335.01846 143.38972 335.37784 143.0616Q335.75284 142.71785 336.37784 142.71785Q337.01846 142.71785 337.37784 143.0616Q337.7372 143.38972 337.7372 143.90535ZM349.89346 140.07722Q349.2216 140.65535 348.6591 140.90535Q348.0966 141.13972 347.4716 141.13972Q346.01846 141.13972 344.9247 139.98347Q343.8466 138.82722 343.8466 137.10847Q343.8466 135.76472 344.5966 134.65535Q345.6122 133.15535 347.4716 133.15535Q348.7997 133.15535 349.7841 133.95222Q350.7841 134.73347 351.2372 136.23347Q351.70596 137.73347 351.70596 139.35847Q351.70596 142.1241 349.58096 143.79597Q347.9247 145.07722 345.95596 145.07722Q344.8622 145.07722 344.26846 144.63972Q343.8622 144.34285 343.8622 143.8741Q343.8622 143.48347 344.1122 143.23347Q344.37784 142.96785 344.75284 142.96785Q344.9716 142.96785 345.2372 143.09285Q345.58096 143.28035 345.95596 143.28035Q347.31534 143.28035 348.4716 142.35847Q349.62784 141.42097 349.89346 140.07722ZM349.64346 137.2491Q349.3466 135.9991 348.7841 135.48347Q348.2216 134.95222 347.4872 134.95222Q346.7216 134.95222 346.1747 135.54597Q345.64346 136.1241 345.64346 137.09285Q345.64346 138.09285 346.1747 138.71785Q346.7216 139.34285 347.4247 139.34285Q348.64346 139.34285 349.64346 137.2491ZM359.7372 136.0616Q359.7372 137.1241 358.9872 137.8741Q358.25284 138.60847 357.20596 138.60847Q356.14346 138.60847 355.39346 137.8741Q354.6591 137.1241 354.6591 136.0616Q354.6591 135.01472 355.39346 134.26472Q356.14346 133.51472 357.20596 133.51472Q358.25284 133.51472 358.9872 134.26472Q359.7372 134.9991 359.7372 136.0616ZM358.62784 136.0616Q358.62784 135.46785 358.20596 135.0616Q357.7841 134.63972 357.20596 134.63972Q356.5966 134.63972 356.1747 135.0616Q355.76846 135.46785 355.76846 136.0616Q355.76846 136.65535 356.19034 137.07722Q356.6122 137.4991 357.20596 137.4991Q357.7841 137.4991 358.20596 137.07722Q358.62784 136.65535 358.62784 136.0616ZM361.8622 138.7491L355.2216 140.90535Q354.9716 140.98347 354.8622 140.98347Q354.6591 140.98347 354.50284 140.8116Q354.3466 140.63972 354.3466 140.38972Q354.3466 140.20222 354.4716 140.0616Q354.5497 139.9366 354.87784 139.84285L361.51846 137.6866Q361.76846 137.60847 361.89346 137.60847Q362.0966 137.60847 362.25284 137.78035Q362.4091 137.95222 362.4091 138.1866Q362.4091 138.3741 362.2841 138.53035Q362.19034 138.63972 361.8622 138.7491ZM362.0341 142.53035Q362.0341 143.59285 361.2841 144.34285Q360.5341 145.07722 359.4716 145.07722Q358.4247 145.07722 357.6747 144.32722Q356.9247 143.57722 356.9247 142.53035Q356.9247 141.48347 357.6747 140.73347Q358.4247 139.98347 359.4716 139.98347Q360.5341 139.98347 361.2841 140.73347Q362.0341 141.46785 362.0341 142.53035ZM360.9091 142.53035Q360.9091 141.9366 360.4872 141.53035Q360.06534 141.10847 359.4716 141.10847Q358.89346 141.10847 358.4716 141.53035Q358.0497 141.9366 358.0497 142.53035Q358.0497 143.1241 358.4716 143.54597Q358.89346 143.95222 359.4716 143.95222Q360.06534 143.95222 360.4872 143.54597Q360.9091 143.1241 360.9091 142.53035Z" fill-rule="nonzero"/><path fill="#34a853" d="M30.55 70.416664C30.55 73.73038 27.863708 76.416664 24.55 76.416664C21.236292 76.416664 18.55 73.73038 18.55 70.416664C18.55 67.10296 21.236292 64.416664 24.55 64.416664C27.863708 64.416664 30.55 67.10296 30.55 70.416664Z" fill-rule="nonzero"/><path fill="#1a1a1a" d="M48.14375 75.916664L46.8625 75.916664L44.534374 67.80729L42.26875 75.916664L40.971874 75.916664L39.76875 65.30729L39.45625 65.30729Q39.159374 65.30729 39.034374 65.197914Q38.909374 65.08854 38.909374 64.90104Q38.909374 64.71354 39.034374 64.604164Q39.159374 64.49479 39.45625 64.49479L42.503124 64.49479Q42.815624 64.49479 42.940624 64.604164Q43.065624 64.71354 43.065624 64.90104Q43.065624 65.08854 42.940624 65.197914Q42.815624 65.30729 42.503124 65.30729L40.596874 65.30729L41.675 74.979164L43.89375 67.02604L45.159374 67.02604L47.425 74.979164L48.4875 65.30729L46.565624 65.30729Q46.26875 65.30729 46.14375 65.197914Q46.01875 65.08854 46.01875 64.90104Q46.01875 64.71354 46.14375 64.604164Q46.26875 64.49479 46.565624 64.49479L49.596874 64.49479Q49.89375 64.49479 50.01875 64.604164Q50.159374 64.71354 50.159374 64.90104Q50.159374 65.08854 50.01875 65.197914Q49.89375 65.30729 49.596874 65.30729L49.3 65.30729L48.14375 75.916664ZM53.846874 63.666664L53.846874 68.71354Q54.628124 67.854164 55.346874 67.510414Q56.065624 67.166664 56.95625 67.166664Q57.909374 67.166664 58.58125 67.510414Q59.253124 67.83854 59.690624 68.541664Q60.14375 69.229164 60.14375 70.010414L60.14375 75.08854L61.065624 75.08854Q61.378124 75.08854 61.4875 75.21354Q61.6125 75.322914 61.6125 75.510414Q61.6125 75.68229 61.4875 75.80729Q61.378124 75.916664 61.065624 75.916664L58.409374 75.916664Q58.096874 75.916664 57.971874 75.80729Q57.846874 75.68229 57.846874 75.510414Q57.846874 75.322914 57.971874 75.21354Q58.096874 75.08854 58.409374 75.08854L59.315624 75.08854L59.315624 70.072914Q59.315624 69.18229 58.675 68.58854Q58.034374 67.979164 56.89375 67.979164Q56.003124 67.979164 55.3625 68.43229Q54.909374 68.74479 53.846874 69.90104L53.846874 75.08854L54.784374 75.08854Q55.065624 75.08854 55.190624 75.21354Q55.33125 75.322914 55.33125 75.510414Q55.33125 75.68229 55.190624 75.80729Q55.065624 75.916664 54.784374 75.916664L52.096874 75.916664Q51.815624 75.916664 51.675 75.80729Q51.55 75.68229 51.55 75.510414Q51.55 75.322914 51.675 75.21354Q51.815624 75.08854 52.096874 75.08854L53.034374 75.08854L53.034374 64.49479L51.925 64.49479Q51.628124 64.49479 51.503124 64.385414Q51.378124 64.260414 51.378124 64.072914Q51.378124 63.90104 51.503124 63.791664Q51.628124 63.666664 51.925 63.666664L53.846874 63.666664ZM68.95625 63.24479L68.95625 65.36979L67.75313 65.36979L67.75313 63.24479L68.95625 63.24479ZM68.9875 67.46354L68.9875 75.08854L72.20625 75.08854Q72.51875 75.08854 72.64375 75.21354Q72.76875 75.322914 72.76875 75.510414Q72.76875 75.68229 72.64375 75.80729Q72.51875 75.916664 72.20625 75.916664L64.94063 75.916664Q64.64375 75.916664 64.51875 75.80729Q64.39375 75.68229 64.39375 75.510414Q64.39375 75.322914 64.51875 75.21354Q64.64375 75.08854 64.94063 75.08854L68.15938 75.08854L68.15938 68.291664L65.76875 68.291664Q65.4875 68.291664 65.34688 68.18229Q65.22188 68.05729 65.22188 67.885414Q65.22188 67.697914 65.34688 67.58854Q65.47188 67.46354 65.76875 67.46354L68.9875 67.46354ZM78.8625 67.46354L83.31563 67.46354Q83.6125 67.46354 83.7375 67.58854Q83.8625 67.697914 83.8625 67.885414Q83.8625 68.05729 83.7375 68.18229Q83.6125 68.291664 83.31563 68.291664L78.8625 68.291664L78.8625 73.74479Q78.8625 74.46354 79.425 74.947914Q80.00313 75.416664 81.1125 75.416664Q81.94063 75.416664 82.90938 75.166664Q83.87813 74.916664 84.40938 74.604164Q84.6125 74.479164 84.7375 74.479164Q84.89375 74.479164 85.00313 74.604164Q85.12813 74.729164 85.12813 74.885414Q85.12813 75.041664 85.00313 75.166664Q84.69063 75.479164 83.47188 75.86979Q82.26875 76.24479 81.175 76.24479Q79.7375 76.24479 78.87813 75.572914Q78.03438 74.885414 78.03438 73.74479L78.03438 68.291664L76.51875 68.291664Q76.2375 68.291664 76.09688 68.18229Q75.97188 68.05729 75.97188 67.86979Q75.97188 67.697914 76.09688 67.58854Q76.2375 67.46354 76.51875 67.46354L78.03438 67.46354L78.03438 65.041664Q78.03438 64.74479 78.14375 64.61979Q78.26875 64.49479 78.44063 64.49479Q78.62813 64.49479 78.7375 64.61979Q78.8625 64.74479 78.8625 65.041664L78.8625 67.46354ZM96.9875 71.885414L88.62813 71.885414Q88.84688 73.479164 89.95625 74.447914Q91.08125 75.416664 92.7375 75.416664Q93.64375 75.416664 94.64375 75.11979Q95.65938 74.80729 96.3 74.30729Q96.4875 74.166664 96.6125 74.166664Q96.76875 74.166664 96.87813 74.291664Q97.00313 74.416664 97.00313 74.572914Q97.00313 74.74479 96.84688 74.90104Q96.37813 75.385414 95.175 75.822914Q93.9875 76.24479 92.7375 76.24479Q90.62813 76.24479 89.20625 74.86979Q87.8 73.479164 87.8 71.510414Q87.8 69.729164 89.1125 68.447914Q90.44063 67.166664 92.39375 67.166664Q94.40938 67.166664 95.70625 68.479164Q97.00313 69.791664 96.9875 71.885414ZM96.15938 71.05729Q95.90938 69.697914 94.8625 68.854164Q93.83125 67.99479 92.39375 67.99479Q90.97188 67.99479 89.925 68.83854Q88.89375 69.68229 88.64375 71.05729L96.15938 71.05729Z" fill-rule="nonzero"/><path fill="#4285f4" d="M30.55 103.416664C30.55 106.73038 27.863708 109.416664 24.55 109.416664C21.236292 109.416664 18.55 106.73038 18.55 103.416664C18.55 100.10296 21.236292 97.416664 24.55 97.416664C27.863708 97.416664 30.55 100.10296 30.55 103.416664Z" fill-rule="nonzero"/><path fill="#1a1a1a" d="M47.253124 105.104164L41.8625 105.104164L40.753124 108.08854L42.33125 108.08854Q42.628124 108.08854 42.753124 108.21354Q42.878124 108.322914 42.878124 108.510414Q42.878124 108.68229 42.753124 108.80729Q42.628124 108.916664 42.33125 108.916664L39.26875 108.916664Q38.971874 108.916664 38.846874 108.80729Q38.721874 108.68229 38.721874 108.510414Q38.721874 108.322914 38.846874 108.21354Q38.971874 108.08854 39.26875 108.08854L39.89375 108.08854L43.51875 98.30729L41.096874 98.30729Q40.8 98.30729 40.675 98.197914Q40.55 98.08854 40.55 97.90104Q40.55 97.71354 40.675 97.604164Q40.8 97.49479 41.096874 97.49479L45.2375 97.49479L49.2375 108.08854L49.8625 108.08854Q50.159374 108.08854 50.284374 108.21354Q50.409374 108.322914 50.409374 108.510414Q50.409374 108.68229 50.284374 108.80729Q50.159374 108.916664 49.8625 108.916664L46.815624 108.916664Q46.503124 108.916664 46.378124 108.80729Q46.253124 108.68229 46.253124 108.510414Q46.253124 108.322914 46.378124 108.21354Q46.503124 108.08854 46.815624 108.08854L48.378124 108.08854L47.253124 105.104164ZM46.940624 104.27604L44.675 98.30729L44.378124 98.30729L42.175 104.27604L46.940624 104.27604ZM59.26875 100.99479Q59.26875 100.71354 59.378124 100.58854Q59.503124 100.46354 59.675 100.46354Q59.8625 100.46354 59.971874 100.58854Q60.096874 100.71354 60.096874 101.010414L60.096874 102.416664Q60.096874 102.71354 59.971874 102.83854Q59.8625 102.96354 59.675 102.96354Q59.503124 102.96354 59.39375 102.86979Q59.284374 102.760414 59.26875 102.510414Q59.20625 101.916664 58.659374 101.541664Q57.8625 100.99479 56.534374 100.99479Q55.159374 100.99479 54.39375 101.55729Q53.815624 101.979164 53.815624 102.49479Q53.815624 103.072914 54.503124 103.46354Q54.971874 103.74479 56.284374 103.885414Q57.9875 104.072914 58.659374 104.30729Q59.596874 104.65104 60.065624 105.260414Q60.534374 105.854164 60.534374 106.55729Q60.534374 107.604164 59.51875 108.43229Q58.51875 109.24479 56.58125 109.24479Q54.628124 109.24479 53.39375 108.24479Q53.39375 108.58854 53.346874 108.68229Q53.315624 108.77604 53.20625 108.854164Q53.1125 108.916664 52.9875 108.916664Q52.8 108.916664 52.675 108.791664Q52.565624 108.666664 52.565624 108.36979L52.565624 106.68229Q52.565624 106.385414 52.675 106.260414Q52.8 106.135414 52.9875 106.135414Q53.159374 106.135414 53.284374 106.260414Q53.409374 106.36979 53.409374 106.58854Q53.409374 107.02604 53.628124 107.33854Q53.971874 107.80729 54.70625 108.11979Q55.45625 108.416664 56.55 108.416664Q58.14375 108.416664 58.925 107.822914Q59.70625 107.229164 59.70625 106.55729Q59.70625 105.80729 58.925 105.33854Q58.1125 104.885414 56.58125 104.729164Q55.065624 104.572914 54.39375 104.322914Q53.7375 104.05729 53.3625 103.55729Q52.9875 103.041664 52.9875 102.46354Q52.9875 101.40104 54.01875 100.791664Q55.065624 100.166664 56.503124 100.166664Q58.190624 100.166664 59.26875 100.99479ZM68.95625 96.24479L68.95625 98.36979L67.75313 98.36979L67.75313 96.24479L68.95625 96.24479ZM68.9875 100.46354L68.9875 108.08854L72.20625 108.08854Q72.51875 108.08854 72.64375 108.21354Q72.76875 108.322914 72.76875 108.510414Q72.76875 108.68229 72.64375 108.80729Q72.51875 108.916664 72.20625 108.916664L64.94063 108.916664Q64.64375 108.916664 64.51875 108.80729Q64.39375 108.68229 64.39375 108.510414Q64.39375 108.322914 64.51875 108.21354Q64.64375 108.08854 64.94063 108.08854L68.15938 108.08854L68.15938 101.291664L65.76875 101.291664Q65.4875 101.291664 65.34688 101.18229Q65.22188 101.05729 65.22188 100.885414Q65.22188 100.697914 65.34688 100.58854Q65.47188 100.46354 65.76875 100.46354L68.9875 100.46354ZM82.90938 108.916664L82.90938 107.729164Q81.12813 109.24479 79.09688 109.24479Q77.6125 109.24479 76.78438 108.49479Q75.95625 107.74479 75.95625 106.666664Q75.95625 105.46354 77.05 104.58854Q78.14375 103.697914 80.2375 103.697914Q80.81563 103.697914 81.47188 103.77604Q82.14375 103.83854 82.90938 103.99479L82.90938 102.666664Q82.90938 101.99479 82.28438 101.49479Q81.65938 100.99479 80.40938 100.99479Q79.45625 100.99479 77.72188 101.55729Q77.40938 101.65104 77.33125 101.65104Q77.175 101.65104 77.05 101.541664Q76.94063 101.416664 76.94063 101.24479Q76.94063 101.072914 77.03438 100.979164Q77.175 100.822914 78.14375 100.572914Q79.675 100.166664 80.45625 100.166664Q82.00313 100.166664 82.8625 100.93229Q83.7375 101.697914 83.7375 102.666664L83.7375 108.08854L84.83125 108.08854Q85.14375 108.08854 85.26875 108.21354Q85.39375 108.322914 85.39375 108.510414Q85.39375 108.68229 85.26875 108.80729Q85.14375 108.916664 84.83125 108.916664L82.90938 108.916664ZM82.90938 104.83854Q82.33125 104.666664 81.69063 104.58854Q81.05 104.510414 80.33125 104.510414Q78.55 104.510414 77.53438 105.27604Q76.78438 105.854164 76.78438 106.666664Q76.78438 107.40104 77.3625 107.916664Q77.94063 108.416664 79.05 108.416664Q80.1125 108.416664 81.01875 107.99479Q81.94063 107.572914 82.90938 106.635414L82.90938 104.83854ZM89.89375 100.46354L89.89375 101.697914Q90.75313 100.822914 91.44063 100.49479Q92.14375 100.166664 93.01875 100.166664Q93.95625 100.166664 94.72188 100.572914Q95.26875 100.854164 95.70625 101.541664Q96.15938 102.21354 96.15938 102.93229L96.15938 108.08854L96.84688 108.08854Q97.14375 108.08854 97.26875 108.21354Q97.39375 108.322914 97.39375 108.510414Q97.39375 108.68229 97.26875 108.80729Q97.14375 108.916664 96.84688 108.916664L94.65938 108.916664Q94.34688 108.916664 94.22188 108.80729Q94.09688 108.68229 94.09688 108.510414Q94.09688 108.322914 94.22188 108.21354Q94.34688 108.08854 94.65938 108.08854L95.34688 108.08854L95.34688 103.072914Q95.34688 102.197914 94.70625 101.604164Q94.06563 100.99479 93.00313 100.99479Q92.19063 100.99479 91.59688 101.322914Q91.00313 101.65104 89.89375 102.947914L89.89375 108.08854L90.83125 108.08854Q91.12813 108.08854 91.25313 108.21354Q91.37813 108.322914 91.37813 108.510414Q91.37813 108.68229 91.25313 108.80729Q91.12813 108.916664 90.83125 108.916664L88.15938 108.916664Q87.8625 108.916664 87.7375 108.80729Q87.6125 108.68229 87.6125 108.510414Q87.6125 108.322914 87.7375 108.21354Q87.8625 108.08854 88.15938 108.08854L89.08125 108.08854L89.08125 101.291664L88.39375 101.291664Q88.09688 101.291664 87.97188 101.18229Q87.84688 101.05729 87.84688 100.86979Q87.84688 100.697914 87.97188 100.58854Q88.09688 100.46354 88.39375 100.46354L89.89375 100.46354Z" fill-rule="nonzero"/><path fill="#fbbc04" d="M30.55 136.41667C30.55 139.73038 27.863708 142.41667 24.55 142.41667C21.236292 142.41667 18.55 139.73038 18.55 136.41667C18.55 133.10295 21.236292 130.41667 24.55 130.41667C27.863708 130.41667 30.55 133.10295 30.55 136.41667Z" fill-rule="nonzero"/><path fill="#1a1a1a" d="M47.33125 136.38542L41.89375 136.38542L41.89375 141.08855L42.9875 141.08855Q43.284374 141.08855 43.409374 141.21355Q43.534374 141.32292 43.534374 141.51042Q43.534374 141.6823 43.409374 141.8073Q43.284374 141.91667 42.9875 141.91667L40.14375 141.91667Q39.846874 141.91667 39.721874 141.8073Q39.596874 141.6823 39.596874 141.51042Q39.596874 141.32292 39.721874 141.21355Q39.846874 141.08855 40.14375 141.08855L41.065624 141.08855L41.065624 131.3073L40.565624 131.3073Q40.253124 131.3073 40.128124 131.19792Q40.003124 131.08855 40.003124 130.90105Q40.003124 130.71355 40.128124 130.60417Q40.253124 130.4948 40.565624 130.4948L42.9875 130.4948Q43.284374 130.4948 43.409374 130.60417Q43.534374 130.71355 43.534374 130.90105Q43.534374 131.08855 43.409374 131.19792Q43.284374 131.3073 42.9875 131.3073L41.89375 131.3073L41.89375 135.57292L47.33125 135.57292L47.33125 131.3073L46.2375 131.3073Q45.940624 131.3073 45.815624 131.19792Q45.690624 131.08855 45.690624 130.90105Q45.690624 130.71355 45.815624 130.60417Q45.940624 130.4948 46.2375 130.4948L48.675 130.4948Q48.971874 130.4948 49.096874 130.60417Q49.221874 130.71355 49.221874 130.90105Q49.221874 131.08855 49.096874 131.19792Q48.971874 131.3073 48.675 131.3073L48.159374 131.3073L48.159374 141.08855L49.08125 141.08855Q49.378124 141.08855 49.503124 141.21355Q49.628124 141.32292 49.628124 141.51042Q49.628124 141.6823 49.503124 141.8073Q49.378124 141.91667 49.08125 141.91667L46.2375 141.91667Q45.940624 141.91667 45.815624 141.8073Q45.690624 141.6823 45.690624 141.51042Q45.690624 141.32292 45.815624 141.21355Q45.940624 141.08855 46.2375 141.08855L47.33125 141.08855L47.33125 136.38542ZM56.95625 129.2448L56.95625 131.3698L55.753124 131.3698L55.753124 129.2448L56.95625 129.2448ZM56.9875 133.46355L56.9875 141.08855L60.20625 141.08855Q60.51875 141.08855 60.64375 141.21355Q60.76875 141.32292 60.76875 141.51042Q60.76875 141.6823 60.64375 141.8073Q60.51875 141.91667 60.20625 141.91667L52.940624 141.91667Q52.64375 141.91667 52.51875 141.8073Q52.39375 141.6823 52.39375 141.51042Q52.39375 141.32292 52.51875 141.21355Q52.64375 141.08855 52.940624 141.08855L56.159374 141.08855L56.159374 134.29167L53.76875 134.29167Q53.4875 134.29167 53.346874 134.1823Q53.221874 134.0573 53.221874 133.88542Q53.221874 133.69792 53.346874 133.58855Q53.471874 133.46355 53.76875 133.46355L56.9875 133.46355ZM71.26875 133.9948Q71.26875 133.71355 71.37813 133.58855Q71.50313 133.46355 71.675 133.46355Q71.8625 133.46355 71.97188 133.58855Q72.09688 133.71355 72.09688 134.01042L72.09688 135.41667Q72.09688 135.71355 71.97188 135.83855Q71.8625 135.96355 71.675 135.96355Q71.50313 135.96355 71.39375 135.8698Q71.28438 135.76042 71.26875 135.51042Q71.20625 134.91667 70.65938 134.54167Q69.8625 133.9948 68.53438 133.9948Q67.15938 133.9948 66.39375 134.5573Q65.81563 134.97917 65.81563 135.4948Q65.81563 136.07292 66.50313 136.46355Q66.97188 136.7448 68.28438 136.88542Q69.9875 137.07292 70.65938 137.3073Q71.59688 137.65105 72.06563 138.26042Q72.53438 138.85417 72.53438 139.5573Q72.53438 140.60417 71.51875 141.4323Q70.51875 142.2448 68.58125 142.2448Q66.62813 142.2448 65.39375 141.2448Q65.39375 141.58855 65.34688 141.6823Q65.31563 141.77605 65.20625 141.85417Q65.1125 141.91667 64.9875 141.91667Q64.8 141.91667 64.675 141.79167Q64.56563 141.66667 64.56563 141.3698L64.56563 139.6823Q64.56563 139.38542 64.675 139.26042Q64.8 139.13542 64.9875 139.13542Q65.15938 139.13542 65.28438 139.26042Q65.40938 139.3698 65.40938 139.58855Q65.40938 140.02605 65.62813 140.33855Q65.97188 140.8073 66.70625 141.1198Q67.45625 141.41667 68.55 141.41667Q70.14375 141.41667 70.925 140.82292Q71.70625 140.22917 71.70625 139.5573Q71.70625 138.8073 70.925 138.33855Q70.1125 137.88542 68.58125 137.72917Q67.06563 137.57292 66.39375 137.32292Q65.7375 137.0573 65.3625 136.5573Q64.9875 136.04167 64.9875 135.46355Q64.9875 134.40105 66.01875 133.79167Q67.06563 133.16667 68.50313 133.16667Q70.19063 133.16667 71.26875 133.9948ZM77.45625 133.46355L77.45625 134.94792Q78.19063 134.0573 79.03438 133.6198Q79.87813 133.16667 81.01875 133.16667Q82.22188 133.16667 83.25313 133.72917Q84.28438 134.29167 84.83125 135.3073Q85.39375 136.32292 85.39375 137.4323Q85.39375 139.19792 84.12813 140.46355Q82.87813 141.71355 81.01875 141.71355Q78.83125 141.71355 77.45625 139.91667L77.45625 144.8698L79.45625 144.8698Q79.75313 144.8698 79.87813 144.97917Q80.00313 145.08855 80.00313 145.27605Q80.00313 145.44792 79.87813 145.5573Q79.75313 145.6823 79.45625 145.6823L75.53438 145.6823Q75.2375 145.6823 75.1125 145.57292Q74.9875 145.46355 74.9875 145.27605Q74.9875 145.08855 75.1125 144.97917Q75.2375 144.8698 75.53438 144.8698L76.64375 144.8698L76.64375 134.29167L75.53438 134.29167Q75.2375 134.29167 75.1125 134.1823Q74.9875 134.0573 74.9875 133.8698Q74.9875 133.69792 75.1125 133.58855Q75.2375 133.46355 75.53438 133.46355L77.45625 133.46355ZM84.56563 137.4323Q84.56563 136.01042 83.53438 135.01042Q82.50313 133.9948 81.01875 133.9948Q79.53438 133.9948 78.4875 135.01042Q77.45625 136.02605 77.45625 137.4323Q77.45625 138.85417 78.4875 139.8698Q79.53438 140.88542 81.01875 140.88542Q82.50313 140.88542 83.53438 139.8698Q84.56563 138.85417 84.56563 137.4323ZM94.90938 141.91667L94.90938 140.72917Q93.12813 142.2448 91.09688 142.2448Q89.6125 142.2448 88.78438 141.4948Q87.95625 140.7448 87.95625 139.66667Q87.95625 138.46355 89.05 137.58855Q90.14375 136.69792 92.2375 136.69792Q92.81563 136.69792 93.47188 136.77605Q94.14375 136.83855 94.90938 136.9948L94.90938 135.66667Q94.90938 134.9948 94.28438 134.4948Q93.65938 133.9948 92.40938 133.9948Q91.45625 133.9948 89.72188 134.5573Q89.40938 134.65105 89.33125 134.65105Q89.175 134.65105 89.05 134.54167Q88.94063 134.41667 88.94063 134.2448Q88.94063 134.07292 89.03438 133.97917Q89.175 133.82292 90.14375 133.57292Q91.675 133.16667 92.45625 133.16667Q94.00313 133.16667 94.8625 133.9323Q95.7375 134.69792 95.7375 135.66667L95.7375 141.08855L96.83125 141.08855Q97.14375 141.08855 97.26875 141.21355Q97.39375 141.32292 97.39375 141.51042Q97.39375 141.6823 97.26875 141.8073Q97.14375 141.91667 96.83125 141.91667L94.90938 141.91667ZM94.90938 137.83855Q94.33125 137.66667 93.69063 137.58855Q93.05 137.51042 92.33125 137.51042Q90.55 137.51042 89.53438 138.27605Q88.78438 138.85417 88.78438 139.66667Q88.78438 140.40105 89.3625 140.91667Q89.94063 141.41667 91.05 141.41667Q92.1125 141.41667 93.01875 140.9948Q93.94063 140.57292 94.90938 139.63542L94.90938 137.83855ZM101.89375 133.46355L101.89375 134.69792Q102.75313 133.82292 103.44063 133.4948Q104.14375 133.16667 105.01875 133.16667Q105.95625 133.16667 106.72188 133.57292Q107.26875 133.85417 107.70625 134.54167Q108.15938 135.21355 108.15938 135.9323L108.15938 141.08855L108.84688 141.08855Q109.14375 141.08855 109.26875 141.21355Q109.39375 141.32292 109.39375 141.51042Q109.39375 141.6823 109.26875 141.8073Q109.14375 141.91667 108.84688 141.91667L106.65938 141.91667Q106.34688 141.91667 106.22188 141.8073Q106.09688 141.6823 106.09688 141.51042Q106.09688 141.32292 106.22188 141.21355Q106.34688 141.08855 106.65938 141.08855L107.34688 141.08855L107.34688 136.07292Q107.34688 135.19792 106.70625 134.60417Q106.06563 133.9948 105.00313 133.9948Q104.19063 133.9948 103.59688 134.32292Q103.00313 134.65105 101.89375 135.94792L101.89375 141.08855L102.83125 141.08855Q103.12813 141.08855 103.25313 141.21355Q103.37813 141.32292 103.37813 141.51042Q103.37813 141.6823 103.25313 141.8073Q103.12813 141.91667 102.83125 141.91667L100.15938 141.91667Q99.8625 141.91667 99.7375 141.8073Q99.6125 141.6823 99.6125 141.51042Q99.6125 141.32292 99.7375 141.21355Q99.8625 141.08855 100.15938 141.08855L101.08125 141.08855L101.08125 134.29167L100.39375 134.29167Q100.09688 134.29167 99.97188 134.1823Q99.84688 134.0573 99.84688 133.8698Q99.84688 133.69792 99.97188 133.58855Q100.09688 133.46355 100.39375 133.46355L101.89375 133.46355ZM116.95625 129.2448L116.95625 131.3698L115.75313 131.3698L115.75313 129.2448L116.95625 129.2448ZM116.9875 133.46355L116.9875 141.08855L120.20625 141.08855Q120.51875 141.08855 120.64375 141.21355Q120.76875 141.32292 120.76875 141.51042Q120.76875 141.6823 120.64375 141.8073Q120.51875 141.91667 120.20625 141.91667L112.94063 141.91667Q112.64375 141.91667 112.51875 141.8073Q112.39375 141.6823 112.39375 141.51042Q112.39375 141.32292 112.51875 141.21355Q112.64375 141.08855 112.94063 141.08855L116.15938 141.08855L116.15938 134.29167L113.76875 134.29167Q113.4875 134.29167 113.34688 134.1823Q113.22188 134.0573 113.22188 133.88542Q113.22188 133.69792 113.34688 133.58855Q113.47188 133.46355 113.76875 133.46355L116.9875 133.46355ZM131.97188 134.29167L131.97188 134.01042Q131.97188 133.71355 132.08125 133.58855Q132.20625 133.46355 132.37813 133.46355Q132.56563 133.46355 132.675 133.58855Q132.8 133.71355 132.8 134.01042L132.8 135.8698Q132.8 136.16667 132.675 136.3073Q132.56563 136.4323 132.37813 136.4323Q132.22188 136.4323 132.09688 136.32292Q131.9875 136.19792 131.97188 135.9323Q131.90938 135.2448 131.05 134.6198Q130.20625 133.9948 128.76875 133.9948Q126.94063 133.9948 125.9875 135.13542Q125.03438 136.27605 125.03438 137.76042Q125.03438 139.35417 126.08125 140.38542Q127.12813 141.41667 128.78438 141.41667Q129.75313 141.41667 130.7375 141.07292Q131.7375 140.71355 132.53438 139.9323Q132.7375 139.7448 132.89375 139.7448Q133.06563 139.7448 133.175 139.85417Q133.28438 139.96355 133.28438 140.13542Q133.28438 140.54167 132.3 141.19792Q130.70625 142.2448 128.75313 142.2448Q126.76875 142.2448 125.4875 140.97917Q124.22188 139.71355 124.22188 137.76042Q124.22188 135.77605 125.51875 134.47917Q126.83125 133.16667 128.81563 133.16667Q130.69063 133.16667 131.97188 134.29167ZM144.2375 129.0573L137.64375 143.21355Q137.47188 143.57292 137.20625 143.57292Q137.03438 143.57292 136.90938 143.44792Q136.8 143.32292 136.8 143.1823Q136.8 143.0573 136.89375 142.85417L143.4875 128.71355Q143.59688 128.4948 143.69063 128.4323Q143.78438 128.35417 143.925 128.35417Q144.09688 128.35417 144.20625 128.47917Q144.33125 128.58855 144.33125 128.7448Q144.33125 128.85417 144.2375 129.0573ZM151.12813 131.3073L151.12813 141.08855L156.58125 141.08855L156.58125 137.83855Q156.58125 137.54167 156.69063 137.41667Q156.81563 137.29167 157.00313 137.29167Q157.175 137.29167 157.28438 137.41667Q157.40938 137.52605 157.40938 137.83855L157.40938 141.91667L148.34688 141.91667Q148.05 141.91667 147.925 141.8073Q147.8 141.6823 147.8 141.51042Q147.8 141.32292 147.925 141.21355Q148.05 141.08855 148.34688 141.08855L150.3 141.08855L150.3 131.3073L148.34688 131.3073Q148.05 131.3073 147.925 131.19792Q147.8 131.08855 147.8 130.90105Q147.8 130.71355 147.925 130.60417Q148.05 130.4948 148.34688 130.4948L153.08125 130.4948Q153.37813 130.4948 153.50313 130.60417Q153.62813 130.71355 153.62813 130.90105Q153.62813 131.08855 153.50313 131.19792Q153.37813 131.3073 153.08125 131.3073L151.12813 131.3073ZM166.90938 141.91667L166.90938 140.72917Q165.12813 142.2448 163.09688 142.2448Q161.6125 142.2448 160.78438 141.4948Q159.95625 140.7448 159.95625 139.66667Q159.95625 138.46355 161.05 137.58855Q162.14375 136.69792 164.2375 136.69792Q164.81563 136.69792 165.47188 136.77605Q166.14375 136.83855 166.90938 136.9948L166.90938 135.66667Q166.90938 134.9948 166.28438 134.4948Q165.65938 133.9948 164.40938 133.9948Q163.45625 133.9948 161.72188 134.5573Q161.40938 134.65105 161.33125 134.65105Q161.175 134.65105 161.05 134.54167Q160.94063 134.41667 160.94063 134.2448Q160.94063 134.07292 161.03438 133.97917Q161.175 133.82292 162.14375 133.57292Q163.675 133.16667 164.45625 133.16667Q166.00313 133.16667 166.8625 133.9323Q167.7375 134.69792 167.7375 135.66667L167.7375 141.08855L168.83125 141.08855Q169.14375 141.08855 169.26875 141.21355Q169.39375 141.32292 169.39375 141.51042Q169.39375 141.6823 169.26875 141.8073Q169.14375 141.91667 168.83125 141.91667L166.90938 141.91667ZM166.90938 137.83855Q166.33125 137.66667 165.69063 137.58855Q165.05 137.51042 164.33125 137.51042Q162.55 137.51042 161.53438 138.27605Q160.78438 138.85417 160.78438 139.66667Q160.78438 140.40105 161.3625 140.91667Q161.94063 141.41667 163.05 141.41667Q164.1125 141.41667 165.01875 140.9948Q165.94063 140.57292 166.90938 139.63542L166.90938 137.83855ZM174.8625 133.46355L179.31563 133.46355Q179.6125 133.46355 179.7375 133.58855Q179.8625 133.69792 179.8625 133.88542Q179.8625 134.0573 179.7375 134.1823Q179.6125 134.29167 179.31563 134.29167L174.8625 134.29167L174.8625 139.7448Q174.8625 140.46355 175.425 140.94792Q176.00313 141.41667 177.1125 141.41667Q177.94063 141.41667 178.90938 141.16667Q179.87813 140.91667 180.40938 140.60417Q180.6125 140.47917 180.7375 140.47917Q180.89375 140.47917 181.00313 140.60417Q181.12813 140.72917 181.12813 140.88542Q181.12813 141.04167 181.00313 141.16667Q180.69063 141.47917 179.47188 141.8698Q178.26875 142.2448 177.175 142.2448Q175.7375 142.2448 174.87813 141.57292Q174.03438 140.88542 174.03438 139.7448L174.03438 134.29167L172.51875 134.29167Q172.2375 134.29167 172.09688 134.1823Q171.97188 134.0573 171.97188 133.8698Q171.97188 133.69792 172.09688 133.58855Q172.2375 133.46355 172.51875 133.46355L174.03438 133.46355L174.03438 131.04167Q174.03438 130.7448 174.14375 130.6198Q174.26875 130.4948 174.44063 130.4948Q174.62813 130.4948 174.7375 130.6198Q174.8625 130.7448 174.8625 131.04167L174.8625 133.46355ZM188.95625 129.2448L188.95625 131.3698L187.75313 131.3698L187.75313 129.2448L188.95625 129.2448ZM188.9875 133.46355L188.9875 141.08855L192.20625 141.08855Q192.51875 141.08855 192.64375 141.21355Q192.76875 141.32292 192.76875 141.51042Q192.76875 141.6823 192.64375 141.8073Q192.51875 141.91667 192.20625 141.91667L184.94063 141.91667Q184.64375 141.91667 184.51875 141.8073Q184.39375 141.6823 184.39375 141.51042Q184.39375 141.32292 184.51875 141.21355Q184.64375 141.08855 184.94063 141.08855L188.15938 141.08855L188.15938 134.29167L185.76875 134.29167Q185.4875 134.29167 185.34688 134.1823Q185.22188 134.0573 185.22188 133.88542Q185.22188 133.69792 185.34688 133.58855Q185.47188 133.46355 185.76875 133.46355L188.9875 133.46355ZM197.89375 133.46355L197.89375 134.69792Q198.75313 133.82292 199.44063 133.4948Q200.14375 133.16667 201.01875 133.16667Q201.95625 133.16667 202.72188 133.57292Q203.26875 133.85417 203.70625 134.54167Q204.15938 135.21355 204.15938 135.9323L204.15938 141.08855L204.84688 141.08855Q205.14375 141.08855 205.26875 141.21355Q205.39375 141.32292 205.39375 141.51042Q205.39375 141.6823 205.26875 141.8073Q205.14375 141.91667 204.84688 141.91667L202.65938 141.91667Q202.34688 141.91667 202.22188 141.8073Q202.09688 141.6823 202.09688 141.51042Q202.09688 141.32292 202.22188 141.21355Q202.34688 141.08855 202.65938 141.08855L203.34688 141.08855L203.34688 136.07292Q203.34688 135.19792 202.70625 134.60417Q202.06563 133.9948 201.00313 133.9948Q200.19063 133.9948 199.59688 134.32292Q199.00313 134.65105 197.89375 135.94792L197.89375 141.08855L198.83125 141.08855Q199.12813 141.08855 199.25313 141.21355Q199.37813 141.32292 199.37813 141.51042Q199.37813 141.6823 199.25313 141.8073Q199.12813 141.91667 198.83125 141.91667L196.15938 141.91667Q195.8625 141.91667 195.7375 141.8073Q195.6125 141.6823 195.6125 141.51042Q195.6125 141.32292 195.7375 141.21355Q195.8625 141.08855 196.15938 141.08855L197.08125 141.08855L197.08125 134.29167L196.39375 134.29167Q196.09688 134.29167 195.97188 134.1823Q195.84688 134.0573 195.84688 133.8698Q195.84688 133.69792 195.97188 133.58855Q196.09688 133.46355 196.39375 133.46355L197.89375 133.46355ZM217.14375 137.71355Q217.14375 139.58855 215.8 140.91667Q214.45625 142.2448 212.55 142.2448Q210.64375 142.2448 209.3 140.91667Q207.97188 139.57292 207.97188 137.71355Q207.97188 135.83855 209.3 134.51042Q210.64375 133.16667 212.55 133.16667Q214.45625 133.16667 215.8 134.4948Q217.14375 135.82292 217.14375 137.71355ZM216.3 137.71355Q216.3 136.16667 215.20625 135.08855Q214.1125 133.9948 212.55 133.9948Q210.9875 133.9948 209.87813 135.08855Q208.78438 136.16667 208.78438 137.71355Q208.78438 139.22917 209.87813 140.32292Q210.9875 141.41667 212.55 141.41667Q214.1125 141.41667 215.20625 140.33855Q216.3 139.2448 216.3 137.71355Z" fill-rule="nonzero"/><path fill="#000000" d="M30.55 169.41667C30.55 172.73038 27.863708 175.41667 24.55 175.41667C21.236292 175.41667 18.55 172.73038 18.55 169.41667C18.55 166.10295 21.236292 163.41667 24.55 163.41667C27.863708 163.41667 30.55 166.10295 30.55 169.41667Z" fill-rule="nonzero"/><path fill="#1a1a1a" d="M48.51875 164.3073L48.51875 171.16667Q48.51875 172.90105 47.3625 174.07292Q46.221874 175.2448 44.58125 175.2448Q43.4875 175.2448 42.64375 174.76042Q41.8 174.27605 41.190624 173.3073Q40.596874 172.33855 40.596874 171.16667L40.596874 164.3073L39.909374 164.3073Q39.6125 164.3073 39.4875 164.19792Q39.3625 164.08855 39.3625 163.90105Q39.3625 163.71355 39.503124 163.58855Q39.6125 163.4948 39.909374 163.4948L42.940624 163.4948Q43.221874 163.4948 43.346874 163.60417Q43.4875 163.71355 43.4875 163.90105Q43.4875 164.08855 43.346874 164.19792Q43.221874 164.3073 42.940624 164.3073L41.425 164.3073L41.425 171.16667Q41.425 172.52605 42.346874 173.47917Q43.284374 174.41667 44.55 174.41667Q45.3625 174.41667 46.01875 174.0573Q46.690624 173.6823 47.190624 172.91667Q47.70625 172.13542 47.70625 171.16667L47.70625 164.3073L46.190624 164.3073Q45.89375 164.3073 45.76875 164.19792Q45.64375 164.08855 45.64375 163.90105Q45.64375 163.71355 45.76875 163.60417Q45.89375 163.4948 46.190624 163.4948L49.221874 163.4948Q49.503124 163.4948 49.628124 163.60417Q49.76875 163.71355 49.76875 163.90105Q49.76875 164.08855 49.628124 164.19792Q49.503124 164.3073 49.221874 164.3073L48.51875 164.3073ZM53.89375 166.46355L53.89375 167.69792Q54.753124 166.82292 55.440624 166.4948Q56.14375 166.16667 57.01875 166.16667Q57.95625 166.16667 58.721874 166.57292Q59.26875 166.85417 59.70625 167.54167Q60.159374 168.21355 60.159374 168.9323L60.159374 174.08855L60.846874 174.08855Q61.14375 174.08855 61.26875 174.21355Q61.39375 174.32292 61.39375 174.51042Q61.39375 174.6823 61.26875 174.8073Q61.14375 174.91667 60.846874 174.91667L58.659374 174.91667Q58.346874 174.91667 58.221874 174.8073Q58.096874 174.6823 58.096874 174.51042Q58.096874 174.32292 58.221874 174.21355Q58.346874 174.08855 58.659374 174.08855L59.346874 174.08855L59.346874 169.07292Q59.346874 168.19792 58.70625 167.60417Q58.065624 166.9948 57.003124 166.9948Q56.190624 166.9948 55.596874 167.32292Q55.003124 167.65105 53.89375 168.94792L53.89375 174.08855L54.83125 174.08855Q55.128124 174.08855 55.253124 174.21355Q55.378124 174.32292 55.378124 174.51042Q55.378124 174.6823 55.253124 174.8073Q55.128124 174.91667 54.83125 174.91667L52.159374 174.91667Q51.8625 174.91667 51.7375 174.8073Q51.6125 174.6823 51.6125 174.51042Q51.6125 174.32292 51.7375 174.21355Q51.8625 174.08855 52.159374 174.08855L53.08125 174.08855L53.08125 167.29167L52.39375 167.29167Q52.096874 167.29167 51.971874 167.1823Q51.846874 167.0573 51.846874 166.8698Q51.846874 166.69792 51.971874 166.58855Q52.096874 166.46355 52.39375 166.46355L53.89375 166.46355ZM66.89375 171.26042L66.89375 174.91667L64.95625 174.91667Q64.675 174.91667 64.53438 174.8073Q64.40938 174.6823 64.40938 174.51042Q64.40938 174.32292 64.53438 174.21355Q64.675 174.08855 64.95625 174.08855L66.06563 174.08855L66.06563 163.4948L64.95625 163.4948Q64.675 163.4948 64.53438 163.38542Q64.40938 163.26042 64.40938 163.07292Q64.40938 162.90105 64.53438 162.79167Q64.675 162.66667 64.95625 162.66667L66.89375 162.66667L66.89375 170.21355L70.37813 167.29167L69.95625 167.29167Q69.65938 167.29167 69.53438 167.1823Q69.40938 167.0573 69.40938 166.88542Q69.40938 166.69792 69.53438 166.58855Q69.65938 166.46355 69.95625 166.46355L72.58125 166.46355Q72.87813 166.46355 73.00313 166.58855Q73.14375 166.69792 73.14375 166.88542Q73.14375 167.0573 73.00313 167.1823Q72.87813 167.29167 72.58125 167.29167L71.62813 167.29167L68.425 169.96355L72.4875 174.08855L73.425 174.08855Q73.7375 174.08855 73.8625 174.21355Q73.9875 174.32292 73.9875 174.51042Q73.9875 174.6823 73.8625 174.8073Q73.7375 174.91667 73.425 174.91667L70.76875 174.91667Q70.4875 174.91667 70.34688 174.8073Q70.22188 174.6823 70.22188 174.51042Q70.22188 174.32292 70.34688 174.21355Q70.4875 174.08855 70.76875 174.08855L71.34688 174.08855L67.83125 170.47917L66.89375 171.26042ZM77.89375 166.46355L77.89375 167.69792Q78.75313 166.82292 79.44063 166.4948Q80.14375 166.16667 81.01875 166.16667Q81.95625 166.16667 82.72188 166.57292Q83.26875 166.85417 83.70625 167.54167Q84.15938 168.21355 84.15938 168.9323L84.15938 174.08855L84.84688 174.08855Q85.14375 174.08855 85.26875 174.21355Q85.39375 174.32292 85.39375 174.51042Q85.39375 174.6823 85.26875 174.8073Q85.14375 174.91667 84.84688 174.91667L82.65938 174.91667Q82.34688 174.91667 82.22188 174.8073Q82.09688 174.6823 82.09688 174.51042Q82.09688 174.32292 82.22188 174.21355Q82.34688 174.08855 82.65938 174.08855L83.34688 174.08855L83.34688 169.07292Q83.34688 168.19792 82.70625 167.60417Q82.06563 166.9948 81.00313 166.9948Q80.19063 166.9948 79.59688 167.32292Q79.00313 167.65105 77.89375 168.94792L77.89375 174.08855L78.83125 174.08855Q79.12813 174.08855 79.25313 174.21355Q79.37813 174.32292 79.37813 174.51042Q79.37813 174.6823 79.25313 174.8073Q79.12813 174.91667 78.83125 174.91667L76.15938 174.91667Q75.8625 174.91667 75.7375 174.8073Q75.6125 174.6823 75.6125 174.51042Q75.6125 174.32292 75.7375 174.21355Q75.8625 174.08855 76.15938 174.08855L77.08125 174.08855L77.08125 167.29167L76.39375 167.29167Q76.09688 167.29167 75.97188 167.1823Q75.84688 167.0573 75.84688 166.8698Q75.84688 166.69792 75.97188 166.58855Q76.09688 166.46355 76.39375 166.46355L77.89375 166.46355ZM97.14375 170.71355Q97.14375 172.58855 95.8 173.91667Q94.45625 175.2448 92.55 175.2448Q90.64375 175.2448 89.3 173.91667Q87.97188 172.57292 87.97188 170.71355Q87.97188 168.83855 89.3 167.51042Q90.64375 166.16667 92.55 166.16667Q94.45625 166.16667 95.8 167.4948Q97.14375 168.82292 97.14375 170.71355ZM96.3 170.71355Q96.3 169.16667 95.20625 168.08855Q94.1125 166.9948 92.55 166.9948Q90.9875 166.9948 89.87813 168.08855Q88.78438 169.16667 88.78438 170.71355Q88.78438 172.22917 89.87813 173.32292Q90.9875 174.41667 92.55 174.41667Q94.1125 174.41667 95.20625 173.33855Q96.3 172.2448 96.3 170.71355ZM107.37813 174.91667L106.3625 174.9323L104.55 169.65105L102.75313 174.9323L101.7375 174.91667L100.05 167.29167L99.64375 167.29167Q99.34688 167.29167 99.22188 167.1823Q99.09688 167.0573 99.09688 166.8698Q99.09688 166.69792 99.22188 166.58855Q99.34688 166.46355 99.64375 166.46355L101.89375 166.46355Q102.19063 166.46355 102.31563 166.58855Q102.44063 166.69792 102.44063 166.88542Q102.44063 167.0573 102.31563 167.1823Q102.19063 167.29167 101.89375 167.29167L100.8625 167.29167L102.31563 173.79167L104.06563 168.60417L105.03438 168.60417L106.83125 173.79167L108.22188 167.29167L107.19063 167.29167Q106.89375 167.29167 106.76875 167.1823Q106.64375 167.0573 106.64375 166.8698Q106.64375 166.69792 106.76875 166.58855Q106.89375 166.46355 107.19063 166.46355L109.44063 166.46355Q109.7375 166.46355 109.8625 166.58855Q110.00313 166.69792 110.00313 166.88542Q110.00313 167.0573 109.8625 167.1823Q109.7375 167.29167 109.44063 167.29167L109.05 167.29167L107.37813 174.91667ZM113.89375 166.46355L113.89375 167.69792Q114.75313 166.82292 115.44063 166.4948Q116.14375 166.16667 117.01875 166.16667Q117.95625 166.16667 118.72188 166.57292Q119.26875 166.85417 119.70625 167.54167Q120.15938 168.21355 120.15938 168.9323L120.15938 174.08855L120.84688 174.08855Q121.14375 174.08855 121.26875 174.21355Q121.39375 174.32292 121.39375 174.51042Q121.39375 174.6823 121.26875 174.8073Q121.14375 174.91667 120.84688 174.91667L118.65938 174.91667Q118.34688 174.91667 118.22188 174.8073Q118.09688 174.6823 118.09688 174.51042Q118.09688 174.32292 118.22188 174.21355Q118.34688 174.08855 118.65938 174.08855L119.34688 174.08855L119.34688 169.07292Q119.34688 168.19792 118.70625 167.60417Q118.06563 166.9948 117.00313 166.9948Q116.19063 166.9948 115.59688 167.32292Q115.00313 167.65105 113.89375 168.94792L113.89375 174.08855L114.83125 174.08855Q115.12813 174.08855 115.25313 174.21355Q115.37813 174.32292 115.37813 174.51042Q115.37813 174.6823 115.25313 174.8073Q115.12813 174.91667 114.83125 174.91667L112.15938 174.91667Q111.8625 174.91667 111.7375 174.8073Q111.6125 174.6823 111.6125 174.51042Q111.6125 174.32292 111.7375 174.21355Q111.8625 174.08855 112.15938 174.08855L113.08125 174.08855L113.08125 167.29167L112.39375 167.29167Q112.09688 167.29167 111.97188 167.1823Q111.84688 167.0573 111.84688 166.8698Q111.84688 166.69792 111.97188 166.58855Q112.09688 166.46355 112.39375 166.46355L113.89375 166.46355Z" fill-rule="nonzero"/><path fill="#000000" d="M23.26875 33.128124L23.26875 36.14375L24.14375 36.14375Q25.003124 36.14375 25.378124 36.4875Q25.753124 36.815624 25.753124 37.346874Q25.753124 37.878124 25.378124 38.221874Q25.003124 38.55 24.14375 38.55L20.503124 38.55Q19.628124 38.55 19.253124 38.221874Q18.89375 37.878124 18.89375 37.346874Q18.89375 36.815624 19.26875 36.4875Q19.64375 36.14375 20.503124 36.14375L20.878124 36.14375L20.878124 26.753124L20.503124 26.753124Q19.628124 26.753124 19.253124 26.425Q18.89375 26.08125 18.89375 25.534374Q18.89375 25.003124 19.253124 24.675Q19.628124 24.33125 20.503124 24.33125L25.940624 24.346874Q28.471874 24.346874 29.878124 25.6125Q31.284374 26.8625 31.284374 28.675Q31.284374 29.8 30.628124 30.721874Q29.971874 31.628124 28.64375 32.346874Q29.409374 33.01875 30.26875 34.065624Q30.815624 34.721874 31.721874 36.14375Q32.64375 36.14375 32.925 36.33125Q33.45625 36.690624 33.45625 37.346874Q33.45625 37.878124 33.096874 38.221874Q32.7375 38.55 31.8625 38.55L30.4875 38.55Q27.58125 34.034374 25.659374 33.128124L23.26875 33.128124ZM23.26875 30.721874L25.14375 30.721874Q26.190624 30.721874 27.01875 30.409374Q28.1125 29.9875 28.4875 29.51875Q28.878124 29.05 28.878124 28.58125Q28.878124 27.909374 28.14375 27.33125Q27.425 26.753124 26.034374 26.753124L23.26875 26.753124L23.26875 30.721874ZM41.909374 38.55L41.909374 37.9875Q41.01875 38.471874 39.925 38.70625Q38.83125 38.95625 37.940624 38.95625Q36.003124 38.95625 34.8 37.925Q33.596874 36.89375 33.596874 35.659374Q33.596874 34.14375 35.128124 32.846874Q36.675 31.55 39.39375 31.55Q40.4875 31.55 41.909374 31.784374L41.909374 31.20625Q41.909374 30.675 41.440624 30.33125Q40.9875 29.9875 39.690624 29.9875Q38.628124 29.9875 36.925 30.409374Q36.284374 30.565624 35.940624 30.565624Q35.45625 30.565624 35.1125 30.221874Q34.784374 29.878124 34.784374 29.33125Q34.784374 29.034374 34.89375 28.815624Q35.01875 28.58125 35.221874 28.45625Q35.440624 28.315624 36.1125 28.128124Q37.003124 27.878124 37.925 27.7375Q38.8625 27.596874 39.6125 27.596874Q41.846874 27.596874 43.08125 28.565624Q44.315624 29.51875 44.315624 31.20625L44.315624 36.14375L44.721874 36.14375Q45.596874 36.14375 45.95625 36.4875Q46.33125 36.815624 46.33125 37.346874Q46.33125 37.878124 45.95625 38.221874Q45.596874 38.55 44.721874 38.55L41.909374 38.55ZM41.909374 34.253124Q40.471874 33.971874 39.253124 33.971874Q37.784374 33.971874 36.7375 34.675Q36.08125 35.14375 36.08125 35.6125Q36.08125 35.940624 36.39375 36.159374Q36.9875 36.55 38.003124 36.55Q38.8625 36.55 39.95625 36.20625Q41.065624 35.8625 41.909374 35.284374L41.909374 34.253124ZM57.503124 28.346874Q57.925 27.925 58.39375 27.925Q58.909374 27.925 59.2375 28.3Q59.565624 28.675 59.565624 29.51875L59.565624 31.065624Q59.565624 31.940624 59.2375 32.3Q58.909374 32.659374 58.3625 32.659374Q57.878124 32.659374 57.534374 32.378124Q57.284374 32.175 57.14375 31.534374Q57.003124 30.878124 56.471874 30.55Q55.51875 29.9875 54.034374 29.9875Q52.346874 29.9875 51.315624 30.9875Q50.284374 31.9875 50.284374 33.503124Q50.284374 34.909374 51.26875 35.7375Q52.253124 36.55 54.55 36.55Q56.05 36.55 56.9875 36.2375Q57.55 36.05 58.05 35.596874Q58.565624 35.14375 58.971874 35.14375Q59.471874 35.14375 59.815624 35.51875Q60.175 35.878124 60.175 36.3625Q60.175 37.159374 59.096874 37.878124Q57.471874 38.95625 54.3625 38.95625Q51.55 38.95625 50.003124 37.784374Q47.89375 36.221874 47.89375 33.51875Q47.89375 30.95625 49.596874 29.284374Q51.315624 27.596874 54.065624 27.596874Q55.065624 27.596874 55.909374 27.784374Q56.76875 27.971874 57.503124 28.346874ZM73.78438 34.440624L63.925 34.440624Q64.3 35.378124 65.25313 35.95625Q66.20625 36.534374 67.84688 36.534374Q69.175 36.534374 71.39375 35.95625Q72.3 35.721874 72.65938 35.721874Q73.14375 35.721874 73.47188 36.065624Q73.8 36.409374 73.8 36.925Q73.8 37.39375 73.44063 37.721874Q72.97188 38.14375 71.15938 38.55Q69.34688 38.940624 67.65938 38.940624Q64.78438 38.940624 63.05 37.315624Q61.33125 35.675 61.33125 33.3Q61.33125 30.76875 63.190624 29.190624Q65.06563 27.596874 67.50313 27.596874Q68.97188 27.596874 70.19063 28.1125Q71.40938 28.628124 72.01875 29.221874Q72.8625 30.08125 73.40938 31.3625Q73.78438 32.253124 73.78438 33.425L73.78438 34.440624ZM71.12813 32.05Q70.56563 31.01875 69.675 30.503124Q68.78438 29.9875 67.56563 29.9875Q66.34688 29.9875 65.45625 30.503124Q64.56563 31.01875 64.00313 32.05L71.12813 32.05ZM101.9875 33.425Q101.9875 34.815624 101.22188 36.1125Q100.45625 37.39375 98.94063 38.175Q97.425 38.940624 95.76875 38.940624Q94.12813 38.940624 92.62813 38.190624Q91.12813 37.425 90.34688 36.128124Q89.56563 34.815624 89.56563 33.409374Q89.56563 31.95625 90.3625 30.58125Q91.15938 29.190624 92.64375 28.39375Q94.14375 27.596874 95.76875 27.596874Q97.40938 27.596874 98.925 28.409374Q100.44063 29.221874 101.20625 30.596874Q101.9875 31.971874 101.9875 33.425ZM99.59688 33.440624Q99.59688 32.284374 98.75313 31.3Q97.62813 29.9875 95.76875 29.9875Q94.14375 29.9875 93.05 31.034374Q91.95625 32.08125 91.95625 33.45625Q91.95625 34.58125 93.05 35.565624Q94.15938 36.534374 95.76875 36.534374Q97.39375 36.534374 98.4875 35.565624Q99.59688 34.58125 99.59688 33.440624ZM109.7375 30.315624L109.7375 36.14375L113.15938 36.14375Q114.01875 36.14375 114.39375 36.4875Q114.76875 36.815624 114.76875 37.346874Q114.76875 37.878124 114.39375 38.221874Q114.01875 38.55 113.15938 38.55L105.90938 38.55Q105.03438 38.55 104.65938 38.221874Q104.3 37.878124 104.3 37.346874Q104.3 36.815624 104.65938 36.4875Q105.03438 36.14375 105.90938 36.14375L107.33125 36.14375L107.33125 30.315624L106.19063 30.315624Q105.31563 30.315624 104.94063 29.9875Q104.58125 29.64375 104.58125 29.096874Q104.58125 28.58125 104.94063 28.253124Q105.31563 27.909374 106.19063 27.909374L107.33125 27.909374L107.33125 26.9875Q107.33125 25.425 108.50313 24.39375Q109.69063 23.346874 111.925 23.346874Q112.925 23.346874 114.22188 23.534374Q115.53438 23.70625 115.89375 24.034374Q116.26875 24.3625 116.26875 24.878124Q116.26875 25.440624 115.94063 25.784374Q115.6125 26.128124 115.14375 26.128124Q114.90938 26.128124 114.47188 26.05Q112.9875 25.753124 111.83125 25.753124Q110.64375 25.753124 110.19063 26.1125Q109.7375 26.471874 109.7375 26.9875L109.7375 27.909374L113.44063 27.909374Q114.3 27.909374 114.675 28.253124Q115.05 28.58125 115.05 29.1125Q115.05 29.64375 114.675 29.9875Q114.3 30.315624 113.44063 30.315624L109.7375 30.315624ZM137.75313 31.721874L135.53438 38.55L132.83125 38.55L131.40938 26.753124Q130.8625 26.675 130.56563 26.3625Q130.28438 26.05 130.28438 25.58125Q130.28438 25.01875 130.65938 24.675Q131.03438 24.33125 131.89375 24.33125L135.09688 24.346874Q135.97188 24.346874 136.33125 24.675Q136.70625 25.003124 136.70625 25.534374Q136.70625 26.08125 136.33125 26.425Q135.97188 26.753124 135.09688 26.753124L133.84688 26.753124L134.64375 33.45625L136.53438 27.878124L139.01875 27.878124L140.89375 33.45625L141.69063 26.753124L140.44063 26.753124Q139.58125 26.753124 139.20625 26.425Q138.83125 26.08125 138.83125 25.534374Q138.83125 25.003124 139.20625 24.675Q139.58125 24.33125 140.44063 24.33125L143.62813 24.346874Q144.50313 24.346874 144.8625 24.675Q145.2375 25.003124 145.2375 25.534374Q145.2375 26.003124 144.94063 26.33125Q144.64375 26.659374 144.09688 26.753124L142.72188 38.55L140.06563 38.55L137.75313 31.721874ZM157.78438 34.440624L147.925 34.440624Q148.3 35.378124 149.25313 35.95625Q150.20625 36.534374 151.84688 36.534374Q153.175 36.534374 155.39375 35.95625Q156.3 35.721874 156.65938 35.721874Q157.14375 35.721874 157.47188 36.065624Q157.8 36.409374 157.8 36.925Q157.8 37.39375 157.44063 37.721874Q156.97188 38.14375 155.15938 38.55Q153.34688 38.940624 151.65938 38.940624Q148.78438 38.940624 147.05 37.315624Q145.33125 35.675 145.33125 33.3Q145.33125 30.76875 147.19063 29.190624Q149.06563 27.596874 151.50313 27.596874Q152.97188 27.596874 154.19063 28.1125Q155.40938 28.628124 156.01875 29.221874Q156.8625 30.08125 157.40938 31.3625Q157.78438 32.253124 157.78438 33.425L157.78438 34.440624ZM155.12813 32.05Q154.56563 31.01875 153.675 30.503124Q152.78438 29.9875 151.56563 29.9875Q150.34688 29.9875 149.45625 30.503124Q148.56563 31.01875 148.00313 32.05L155.12813 32.05ZM162.72188 23.346874L162.72188 28.7375Q163.59688 28.159374 164.50313 27.878124Q165.425 27.596874 166.34688 27.596874Q168.84688 27.596874 170.58125 29.315624Q172.31563 31.034374 172.31563 33.471874Q172.31563 35.8 170.65938 37.378124Q169.00313 38.940624 166.3 38.940624Q165.33125 38.940624 164.44063 38.690624Q163.55 38.440624 162.72188 37.95625L162.72188 38.55L159.90938 38.55Q159.05 38.55 158.675 38.221874Q158.3 37.878124 158.3 37.346874Q158.3 36.815624 158.675 36.4875Q159.05 36.14375 159.90938 36.14375L160.31563 36.14375L160.31563 25.753124L159.90938 25.753124Q159.05 25.753124 158.675 25.425Q158.3 25.08125 158.3 24.55Q158.3 24.01875 158.675 23.690624Q159.05 23.346874 159.90938 23.346874L162.72188 23.346874ZM169.90938 33.55Q169.90938 32.05 168.8625 31.01875Q167.81563 29.9875 166.31563 29.9875Q164.81563 29.9875 163.76875 31.01875Q162.72188 32.05 162.72188 33.503124Q162.72188 34.83125 163.65938 35.690624Q164.59688 36.534374 166.31563 36.534374Q168.01875 36.534374 168.95625 35.690624Q169.90938 34.83125 169.90938 33.55ZM188.37813 36.14375L188.37813 26.753124Q187.6125 26.7375 187.25313 26.409374Q186.89375 26.065624 186.89375 25.534374Q186.89375 25.003124 187.25313 24.675Q187.62813 24.33125 188.50313 24.33125L193.51875 24.346874Q194.69063 24.346874 195.81563 24.784374Q196.94063 25.20625 197.6125 25.878124Q198.12813 26.378124 198.675 27.26875Q199.2375 28.14375 199.51875 29.01875Q199.8 29.878124 199.8 31.128124L199.8 32.284374Q199.8 33.8 199.28438 34.9875Q198.76875 36.159374 197.925 36.909374Q197.09688 37.64375 196.3625 38.003124Q195.19063 38.55 193.33125 38.55L188.50313 38.55Q187.62813 38.55 187.25313 38.221874Q186.89375 37.878124 186.89375 37.346874Q186.89375 36.815624 187.25313 36.471874Q187.62813 36.128124 188.37813 36.14375ZM190.78438 36.14375L193.33125 36.14375Q194.76875 36.14375 195.4875 35.7375Q196.44063 35.190624 196.925 34.3625Q197.40938 33.534374 197.40938 32.20625L197.40938 31.065624Q197.40938 29.940624 196.97188 29.08125Q196.28438 27.7375 195.44063 27.253124Q194.59688 26.753124 193.31563 26.753124L190.78438 26.753124L190.78438 36.14375ZM213.78438 34.440624L203.925 34.440624Q204.3 35.378124 205.25313 35.95625Q206.20625 36.534374 207.84688 36.534374Q209.175 36.534374 211.39375 35.95625Q212.3 35.721874 212.65938 35.721874Q213.14375 35.721874 213.47188 36.065624Q213.8 36.409374 213.8 36.925Q213.8 37.39375 213.44063 37.721874Q212.97188 38.14375 211.15938 38.55Q209.34688 38.940624 207.65938 38.940624Q204.78438 38.940624 203.05 37.315624Q201.33125 35.675 201.33125 33.3Q201.33125 30.76875 203.19063 29.190624Q205.06563 27.596874 207.50313 27.596874Q208.97188 27.596874 210.19063 28.1125Q211.40938 28.628124 212.01875 29.221874Q212.8625 30.08125 213.40938 31.3625Q213.78438 32.253124 213.78438 33.425L213.78438 34.440624ZM211.12813 32.05Q210.56563 31.01875 209.675 30.503124Q208.78438 29.9875 207.56563 29.9875Q206.34688 29.9875 205.45625 30.503124Q204.56563 31.01875 204.00313 32.05L211.12813 32.05ZM221.76875 35.628124L224.3625 30.315624Q223.39375 30.315624 223.12813 30.14375Q222.55 29.784374 222.55 29.096874Q222.55 28.58125 222.90938 28.253124Q223.28438 27.909374 224.14375 27.909374L227.44063 27.909374Q228.31563 27.909374 228.675 28.253124Q229.05 28.58125 229.05 29.1125Q229.05 29.64375 228.675 29.9875Q228.31563 30.315624 227.44063 30.315624L227.05 30.315624L223.01875 38.55L220.51875 38.55L216.50313 30.315624L216.15938 30.315624Q215.28438 30.315624 214.90938 29.9875Q214.55 29.64375 214.55 29.096874Q214.55 28.58125 214.90938 28.253124Q215.28438 27.909374 216.15938 27.909374L219.37813 27.909374Q220.2375 27.909374 220.59688 28.253124Q220.97188 28.58125 220.97188 29.1125Q220.97188 29.784374 220.40938 30.128124Q220.12813 30.315624 219.15938 30.315624L221.76875 35.628124ZM241.78438 34.440624L231.925 34.440624Q232.3 35.378124 233.25313 35.95625Q234.20625 36.534374 235.84688 36.534374Q237.175 36.534374 239.39375 35.95625Q240.3 35.721874 240.65938 35.721874Q241.14375 35.721874 241.47188 36.065624Q241.8 36.409374 241.8 36.925Q241.8 37.39375 241.44063 37.721874Q240.97188 38.14375 239.15938 38.55Q237.34688 38.940624 235.65938 38.940624Q232.78438 38.940624 231.05 37.315624Q229.33125 35.675 229.33125 33.3Q229.33125 30.76875 231.19063 29.190624Q233.06563 27.596874 235.50313 27.596874Q236.97188 27.596874 238.19063 28.1125Q239.40938 28.628124 240.01875 29.221874Q240.8625 30.08125 241.40938 31.3625Q241.78438 32.253124 241.78438 33.425L241.78438 34.440624ZM239.12813 32.05Q238.56563 31.01875 237.675 30.503124Q236.78438 29.9875 235.56563 29.9875Q234.34688 29.9875 233.45625 30.503124Q232.56563 31.01875 232.00313 32.05L239.12813 32.05ZM250.95625 23.346874L250.95625 36.14375L253.83125 36.14375Q254.70625 36.14375 255.06563 36.4875Q255.44063 36.815624 255.44063 37.346874Q255.44063 37.878124 255.06563 38.221874Q254.70625 38.55 253.83125 38.55L245.675 38.55Q244.8 38.55 244.425 38.221874Q244.06563 37.878124 244.06563 37.346874Q244.06563 36.815624 244.425 36.4875Q244.8 36.14375 245.675 36.14375L248.55 36.14375L248.55 25.753124L246.6125 25.753124Q245.76875 25.753124 245.39375 25.425Q245.01875 25.08125 245.01875 24.55Q245.01875 24.01875 245.37813 23.690624Q245.75313 23.346874 246.6125 23.346874L250.95625 23.346874ZM269.9875 33.425Q269.9875 34.815624 269.22186 36.1125Q268.45624 37.39375 266.9406 38.175Q265.425 38.940624 263.76874 38.940624Q262.1281 38.940624 260.6281 38.190624Q259.1281 37.425 258.34686 36.128124Q257.5656 34.815624 257.5656 33.409374Q257.5656 31.95625 258.3625 30.58125Q259.15936 29.190624 260.64374 28.39375Q262.14374 27.596874 263.76874 27.596874Q265.40936 27.596874 266.925 28.409374Q268.4406 29.221874 269.20624 30.596874Q269.9875 31.971874 269.9875 33.425ZM267.59686 33.440624Q267.59686 32.284374 266.7531 31.3Q265.6281 29.9875 263.76874 29.9875Q262.14374 29.9875 261.05 31.034374Q259.95624 32.08125 259.95624 33.45625Q259.95624 34.58125 261.05 35.565624Q262.15936 36.534374 263.76874 36.534374Q265.39374 36.534374 266.4875 35.565624Q267.59686 34.58125 267.59686 33.440624ZM274.76874 37.221874L274.76874 41.159374L276.20624 41.159374Q277.08124 41.159374 277.4406 41.4875Q277.8156 41.83125 277.8156 42.378124Q277.8156 42.89375 277.4406 43.221874Q277.08124 43.565624 276.20624 43.565624L271.95624 43.565624Q271.09686 43.565624 270.72186 43.221874Q270.34686 42.89375 270.34686 42.378124Q270.34686 41.83125 270.72186 41.4875Q271.09686 41.159374 271.95624 41.159374L272.3625 41.159374L272.3625 30.315624L271.95624 30.315624Q271.09686 30.315624 270.72186 29.9875Q270.34686 29.64375 270.34686 29.096874Q270.34686 28.58125 270.72186 28.253124Q271.09686 27.909374 271.95624 27.909374L274.76874 27.909374L274.76874 28.721874Q275.6125 28.159374 276.51874 27.878124Q277.425 27.596874 278.3625 27.596874Q280.83124 27.596874 282.5656 29.26875Q284.3 30.925 284.3 33.08125Q284.3 35.471874 282.2531 37.01875Q280.53436 38.3 278.39374 38.3Q277.47186 38.3 276.5656 38.034374Q275.65936 37.76875 274.76874 37.221874ZM281.89374 33.096874Q281.89374 32.596874 281.4875 31.815624Q281.09686 31.034374 280.26874 30.51875Q279.4406 29.9875 278.33124 29.9875Q276.53436 29.9875 275.4875 31.346874Q274.76874 32.26875 274.76874 33.128124Q274.76874 34.08125 275.78436 34.9875Q276.8156 35.89375 278.33124 35.89375Q279.8625 35.89375 280.8781 35.003124Q281.89374 34.096874 281.89374 33.096874ZM297.78436 34.440624L287.925 34.440624Q288.3 35.378124 289.2531 35.95625Q290.20624 36.534374 291.84686 36.534374Q293.175 36.534374 295.39374 35.95625Q296.3 35.721874 296.65936 35.721874Q297.14374 35.721874 297.47186 36.065624Q297.8 36.409374 297.8 36.925Q297.8 37.39375 297.4406 37.721874Q296.97186 38.14375 295.15936 38.55Q293.34686 38.940624 291.65936 38.940624Q288.78436 38.940624 287.05 37.315624Q285.33124 35.675 285.33124 33.3Q285.33124 30.76875 287.1906 29.190624Q289.0656 27.596874 291.5031 27.596874Q292.97186 27.596874 294.1906 28.1125Q295.40936 28.628124 296.01874 29.221874Q296.8625 30.08125 297.40936 31.3625Q297.78436 32.253124 297.78436 33.425L297.78436 34.440624ZM295.1281 32.05Q294.5656 31.01875 293.675 30.503124Q292.78436 29.9875 291.5656 29.9875Q290.34686 29.9875 289.45624 30.503124Q288.5656 31.01875 288.0031 32.05L295.1281 32.05ZM305.2531 27.909374L305.2531 29.409374Q306.76874 28.315624 307.64374 27.95625Q308.51874 27.596874 309.26874 27.596874Q310.4406 27.596874 311.55 28.45625Q312.3 29.05 312.3 29.659374Q312.3 30.175 311.9406 30.534374Q311.58124 30.878124 311.08124 30.878124Q310.6281 30.878124 310.1281 30.440624Q309.64374 29.9875 309.26874 29.9875Q308.7531 29.9875 307.7531 30.628124Q306.7531 31.253124 305.2531 32.51875L305.2531 36.14375L308.675 36.14375Q309.55 36.14375 309.90936 36.4875Q310.28436 36.815624 310.28436 37.346874Q310.28436 37.878124 309.90936 38.221874Q309.55 38.55 308.675 38.55L301.425 38.55Q300.55 38.55 300.175 38.221874Q299.8156 37.878124 299.8156 37.346874Q299.8156 36.815624 300.175 36.4875Q300.55 36.14375 301.425 36.14375L302.84686 36.14375L302.84686 30.315624L301.9875 30.315624Q301.1125 30.315624 300.7375 29.9875Q300.3781 29.64375 300.3781 29.096874Q300.3781 28.58125 300.7375 28.253124Q301.1125 27.909374 301.9875 27.909374L305.2531 27.909374ZM322.34686 30.721874Q321.76874 30.3625 321.1125 30.175Q320.47186 29.9875 319.76874 29.9875Q318.3781 29.9875 317.55 30.45625Q317.1906 30.64375 317.1906 30.878124Q317.1906 31.159374 317.6906 31.409374Q318.0656 31.596874 319.3625 31.76875Q321.7531 32.096874 322.6906 32.425Q323.925 32.8625 324.58124 33.721874Q325.2531 34.58125 325.2531 35.51875Q325.2531 36.815624 324.1125 37.675Q322.4875 38.940624 319.89374 38.940624Q318.84686 38.940624 317.95624 38.753124Q317.08124 38.58125 316.33124 38.221874Q316.15936 38.378124 315.95624 38.45625Q315.76874 38.534374 315.55 38.534374Q314.9875 38.534374 314.64374 38.175Q314.3156 37.8 314.3156 36.925L314.3156 36.128124Q314.3156 35.253124 314.64374 34.89375Q314.9875 34.51875 315.53436 34.51875Q315.95624 34.51875 316.2531 34.76875Q316.55 35.003124 316.70624 35.58125Q317.26874 36.05 318.03436 36.3Q318.8156 36.534374 319.8156 36.534374Q321.47186 36.534374 322.3781 36.01875Q322.8156 35.753124 322.8156 35.471874Q322.8156 35.003124 322.1906 34.70625Q321.58124 34.39375 319.6281 34.190624Q316.7375 33.878124 315.76874 33.01875Q314.78436 32.159374 314.78436 30.909374Q314.78436 29.6125 315.8781 28.76875Q317.3625 27.596874 319.7531 27.596874Q320.58124 27.596874 321.34686 27.753124Q322.1125 27.909374 322.8156 28.2375Q323.03436 28.065624 323.22186 27.9875Q323.425 27.909374 323.59686 27.909374Q324.08124 27.909374 324.40936 28.284374Q324.7375 28.64375 324.7375 29.51875L324.7375 30.096874Q324.7375 30.878124 324.55 31.159374Q324.175 31.70625 323.53436 31.70625Q323.09686 31.70625 322.76874 31.440624Q322.4406 31.159374 322.34686 30.721874Z" fill-rule="nonzero"/></svg>