<svg width="1920" height="1080" viewBox="0 0 1920 1080" xmlns="http://www.w3.org/2000/svg"><path d="M1920,1080C1600.5,1081.3333333333333,274.3333333333333,1105.1666666666667,0,1080C-274.3333333333333,1054.8333333333333,182.66666666666669,966.5,274,929C365.3333333333333,891.5,458.3333333333333,853.5,548,855C637.6666666666666,856.5,722.8333333333334,911.6666666666666,812,938C901.1666666666666,964.3333333333334,990.3333333333334,1028.6666666666667,1083,1013C1175.6666666666667,997.3333333333334,1274.5,858.6666666666666,1368,844C1461.5,829.3333333333334,1552.5,887,1644,925C1735.5,963,1871,1046.1666666666667,1917,1072C1963,1097.8333333333333,2239.5,1078.6666666666667,1920,1080C1600.5,1081.3333333333333,274.3333333333333,1105.1666666666667,0,1080" fill="#4dd2fe"/></svg>